<svg width="345" height="344" viewBox="0 0 345 344" fill="none" xmlns="http://www.w3.org/2000/svg">
<path d="M64.2348 218.193L54.0297 218.385L48.8594 218.462C47.1325 218.494 45.3974 218.488 43.6657 218.5L43.3602 218.502L43.3588 218.193L43.3217 209.502L43.3203 209.156L43.6657 209.158L53.9499 209.201C57.3782 209.204 60.8058 209.278 64.2341 209.314L64.4233 209.316L64.422 209.502C64.4089 210.973 64.3628 212.438 64.3318 213.888L64.2348 218.193ZM64.2348 218.193L64.1371 213.807C64.1062 212.36 64.0601 210.927 64.047 209.502L64.2348 209.689C60.8065 209.725 57.3789 209.799 53.9506 209.802L43.6664 209.846L44.0097 209.502L43.9725 218.194L43.6657 217.887C45.3623 217.899 47.0555 217.892 48.7569 217.925L53.8708 218.002L64.2348 218.193Z" fill="#EBEBEB"/>
<path d="M52.7583 229.15L42.5532 229.342L37.3828 229.419C35.656 229.452 33.9208 229.445 32.1891 229.457L31.8837 229.459L31.8823 229.15L31.8451 220.459L31.8438 220.113L32.1891 220.115L42.4733 220.158C45.9017 220.161 49.3293 220.235 52.7576 220.271L52.9468 220.273L52.9454 220.459C52.9323 221.93 52.8862 223.395 52.8553 224.845L52.7583 229.15ZM52.7583 229.15L52.6606 224.764C52.6296 223.317 52.5835 221.884 52.5704 220.459L52.7583 220.646C49.33 220.682 45.9023 220.756 42.474 220.759L32.1898 220.803L32.5331 220.459L32.496 229.151L32.1891 228.844C33.8857 228.856 35.5789 228.85 37.2803 228.882L42.3942 228.959L52.7583 229.15Z" fill="#EBEBEB"/>
<path d="M52.7583 41.0799L42.5532 41.2718L37.3828 41.3489C35.656 41.3812 33.9208 41.3743 32.1891 41.3867L31.8837 41.3888L31.8823 41.0799L31.8451 32.3883L31.8438 32.043L32.1891 32.0443L42.4733 32.0877C45.9017 32.0911 49.3293 32.1647 52.7576 32.2005L52.9468 32.2026L52.9454 32.3883C52.9323 33.86 52.8862 35.3247 52.8553 36.7743L52.7583 41.0799ZM52.7583 41.0799L52.6606 36.6939C52.6296 35.247 52.5835 33.8139 52.5704 32.3883L52.7583 32.5762C49.33 32.6113 45.9023 32.6856 42.474 32.689L32.1898 32.7317L32.5331 32.3883L32.496 41.0799L32.1891 40.773C33.8857 40.7854 35.5789 40.7785 37.2803 40.8108L42.3942 40.8879L52.7583 41.0799Z" fill="#EBEBEB"/>
<path d="M312.805 41.0799L302.6 41.2718L297.43 41.3489C295.703 41.3812 293.968 41.3743 292.236 41.3867L291.931 41.3888L291.929 41.0799L291.892 32.3883L291.891 32.043L292.236 32.0443L302.52 32.0877C305.949 32.0911 309.376 32.1647 312.804 32.2005L312.994 32.2026L312.992 32.3883C312.979 33.86 312.933 35.3247 312.902 36.7743L312.805 41.0799ZM312.805 41.0799L312.707 36.6939C312.676 35.247 312.63 33.8139 312.617 32.3883L312.805 32.5762C309.377 32.6113 305.949 32.6856 302.521 32.689L292.237 32.7323L292.58 32.389L292.543 41.0805L292.236 40.7737C293.933 40.7861 295.626 40.7792 297.327 40.8115L302.441 40.8886L312.805 41.0799Z" fill="#EBEBEB"/>
<path d="M301.336 52.0408L291.131 52.2327L285.961 52.3098C284.234 52.3421 282.499 52.3352 280.767 52.3476L280.462 52.3497L280.46 52.0408L280.423 43.3493L280.422 43.0039L280.767 43.0053L291.051 43.0486C294.48 43.0521 297.907 43.1257 301.336 43.1615L301.525 43.1635L301.524 43.3493C301.51 44.8209 301.464 46.2857 301.433 47.7353L301.336 52.0408ZM301.336 52.0408L301.239 47.6548C301.208 46.2079 301.162 44.7748 301.149 43.3493L301.336 43.5371C297.908 43.5722 294.48 43.6465 291.052 43.6499L280.768 43.6933L281.111 43.35L281.074 52.0415L280.767 51.7346C282.464 51.747 284.157 51.7401 285.858 51.7725L290.972 51.8495L301.336 52.0408Z" fill="#EBEBEB"/>
<path d="M248.649 153.72L238.444 153.912L233.273 153.989C231.547 154.022 229.811 154.016 228.08 154.027L227.774 154.029L227.773 153.72L227.736 145.029L227.734 144.684L228.08 144.685L238.364 144.728C241.792 144.732 245.22 144.806 248.648 144.841L248.837 144.843L248.836 145.029C248.823 146.501 248.777 147.965 248.746 149.415L248.649 153.72ZM248.649 153.72L248.551 149.334C248.52 147.887 248.474 146.455 248.461 145.029L248.649 145.217C245.221 145.252 241.792 145.326 238.365 145.33L228.08 145.373L228.424 145.03L228.387 153.721L228.08 153.415C229.776 153.427 231.47 153.421 233.171 153.453L238.285 153.53L248.649 153.72Z" fill="#EBEBEB"/>
<path d="M237.18 164.681L226.975 164.873L221.805 164.95C220.078 164.983 218.343 164.976 216.611 164.988L216.306 164.99L216.304 164.681L216.267 155.99L216.266 155.645L216.611 155.646L226.895 155.689C230.324 155.693 233.751 155.767 237.179 155.802L237.369 155.804L237.367 155.99C237.354 157.462 237.308 158.926 237.277 160.376L237.18 164.681ZM237.18 164.681L237.082 160.295C237.051 158.849 237.005 157.415 236.992 155.99L237.18 156.178C233.752 156.213 230.324 156.287 226.896 156.291L216.612 156.334L216.955 155.991L216.918 164.682L216.611 164.375C218.308 164.388 220.001 164.381 221.702 164.413L226.816 164.49L237.18 164.681Z" fill="#EBEBEB"/>
<path d="M225.75 153.72L215.545 153.912L210.375 153.989C208.648 154.022 206.913 154.016 205.181 154.027L204.876 154.029L204.874 153.72L204.837 145.029L204.836 144.684L205.181 144.685L215.466 144.728C218.894 144.732 222.321 144.806 225.75 144.841L225.939 144.843L225.938 145.029C225.925 146.501 225.878 147.965 225.847 149.415L225.75 153.72ZM225.75 153.72L225.653 149.334C225.622 147.887 225.576 146.455 225.563 145.029L225.75 145.217C222.322 145.252 218.894 145.326 215.466 145.33L205.182 145.373L205.525 145.03L205.488 153.721L205.181 153.415C206.878 153.427 208.571 153.421 210.273 153.453L215.386 153.53L225.75 153.72Z" fill="#EBEBEB"/>
<path d="M312.805 229.15L302.6 229.342L297.43 229.419C295.703 229.452 293.968 229.445 292.236 229.457L291.931 229.459L291.929 229.15L291.892 220.459L291.891 220.113L292.236 220.115L302.52 220.158C305.949 220.161 309.377 220.235 312.804 220.271L312.994 220.273L312.992 220.459C312.979 221.93 312.933 223.395 312.902 224.845L312.805 229.15ZM312.805 229.15L312.707 224.764C312.676 223.317 312.63 221.884 312.617 220.459L312.805 220.646C309.377 220.682 305.949 220.756 302.521 220.759L292.237 220.803L292.58 220.459L292.543 229.151L292.236 228.844C293.933 228.856 295.626 228.85 297.327 228.882L302.441 228.959L312.805 229.15Z" fill="#EBEBEB"/>
<path d="M138.047 66.9275L127.842 67.1195L122.672 67.1965C120.945 67.2288 119.21 67.222 117.478 67.2343L117.173 67.2364L117.171 66.9275L117.134 58.236L117.133 57.8906L117.478 57.892L127.762 57.9353C131.191 57.9388 134.618 58.0124 138.047 58.0482L138.236 58.0502L138.234 58.236C138.221 59.7076 138.175 61.1724 138.144 62.622L138.047 66.9275ZM138.047 66.9275L137.95 62.5415C137.919 61.0946 137.873 59.6615 137.86 58.236L138.047 58.4238C134.619 58.4589 131.191 58.5332 127.763 58.5367L117.479 58.58L117.822 58.2367L117.785 66.9282L117.478 66.6213C119.175 66.6337 120.868 66.6268 122.569 66.6592L127.683 66.7362L138.047 66.9275Z" fill="#EBEBEB"/>
<path d="M291.68 124.512L295.73 117.982L293.73 116.743C293.142 116.379 292.824 115.714 292.883 115.025C292.915 114.644 292.928 114.26 292.919 113.876C292.904 113.186 293.265 112.544 293.873 112.218L295.946 111.106L292.313 104.333L290.241 105.444C289.633 105.77 288.899 105.715 288.332 105.321C288.017 105.102 287.691 104.899 287.355 104.716C286.749 104.383 286.371 103.75 286.393 103.059L286.467 100.707L278.787 100.469L278.716 102.829C278.696 103.521 278.271 104.123 277.645 104.419C277.475 104.499 277.307 104.584 277.14 104.673C276.973 104.763 276.809 104.856 276.649 104.953C276.059 105.31 275.326 105.33 274.741 104.968L272.727 103.72L268.676 110.249L270.68 111.493C271.267 111.858 271.586 112.523 271.526 113.213C271.493 113.592 271.481 113.974 271.488 114.357C271.503 115.045 271.142 115.687 270.535 116.013L268.461 117.125L272.094 123.898L274.167 122.786C274.775 122.46 275.508 122.515 276.074 122.908C276.389 123.126 276.714 123.327 277.049 123.509C277.656 123.841 278.034 124.474 278.013 125.166L277.941 127.523L285.621 127.762L285.695 125.404C285.716 124.715 286.139 124.115 286.762 123.819C286.933 123.739 287.103 123.653 287.272 123.563C287.438 123.473 287.602 123.38 287.763 123.283C288.357 122.925 289.092 122.904 289.681 123.27L291.68 124.512ZM285.178 119.663C282.115 121.306 278.303 120.155 276.661 117.092C275.018 114.029 276.165 110.212 279.229 108.569C282.292 106.926 286.112 108.079 287.755 111.142C289.397 114.205 288.241 118.02 285.178 119.663Z" fill="#EBEBEB"/>
<path d="M70.3521 198.497L74.4024 191.967L72.4024 190.728C71.8141 190.363 71.4956 189.699 71.5547 189.009C71.5878 188.628 71.5995 188.245 71.5912 187.86C71.5761 187.17 71.9366 186.528 72.5448 186.202L74.6177 185.09L70.9851 178.317L68.9128 179.429C68.3046 179.755 67.5705 179.7 67.0043 179.306C66.6885 179.086 66.3624 178.884 66.0274 178.7C65.4205 178.368 65.0428 177.734 65.0648 177.043L65.1392 174.692L57.459 174.453L57.3881 176.813C57.3675 177.505 56.943 178.107 56.3169 178.403C56.147 178.483 55.9784 178.568 55.8119 178.657C55.6448 178.747 55.481 178.84 55.3207 178.938C54.7311 179.294 53.9984 179.315 53.4129 178.952L51.3984 177.704L47.3482 184.234L49.3516 185.477C49.9392 185.842 50.2577 186.508 50.1979 187.197C50.1648 187.577 50.1524 187.959 50.16 188.341C50.1745 189.03 49.8139 189.672 49.2064 189.997L47.1328 191.109L50.7655 197.882L52.8391 196.77C53.4466 196.444 54.18 196.499 54.7462 196.892C55.0606 197.11 55.3861 197.311 55.7204 197.494C56.3279 197.825 56.7063 198.459 56.685 199.15L56.6128 201.507L64.2929 201.746L64.3665 199.388C64.3879 198.699 64.811 198.099 65.4343 197.805C65.6049 197.724 65.7749 197.638 65.9434 197.548C66.1106 197.458 66.2743 197.365 66.4353 197.268C67.0284 196.91 67.7639 196.889 68.3528 197.255L70.3521 198.497ZM63.8492 193.648C60.7862 195.291 56.9747 194.14 55.3317 191.077C53.6888 188.014 54.8363 184.197 57.9 182.554C60.963 180.911 64.7828 182.064 66.4257 185.127C68.0687 188.19 66.9121 192.005 63.8492 193.648Z" fill="#EBEBEB"/>
<path d="M149.018 73.4385L146.327 68.7759L144.901 69.6001C144.481 69.843 143.965 69.8196 143.559 69.5547C143.335 69.4081 143.102 69.274 142.862 69.1515C142.431 68.9327 142.154 68.4972 142.154 68.0143V66.3672H136.77V68.015C136.77 68.4979 136.492 68.9334 136.062 69.1522C135.822 69.274 135.589 69.4088 135.365 69.5554C134.959 69.8196 134.443 69.8437 134.023 69.6008L132.596 68.7766L129.906 73.4391L131.339 74.2641C131.76 74.5062 131.991 74.9672 131.966 75.4515C131.959 75.5829 131.956 75.715 131.956 75.8478C131.956 75.9806 131.959 76.1127 131.966 76.2441C131.991 76.7264 131.761 77.1853 131.343 77.4268L129.906 78.2572L132.596 82.9198L134.027 82.0949C134.447 81.8527 134.964 81.8768 135.37 82.1417C135.593 82.2875 135.824 82.4217 136.064 82.5434C136.494 82.7629 136.77 83.1977 136.77 83.6807V85.3292H142.155V83.6807C142.155 83.1977 142.431 82.7629 142.861 82.5434C143.1 82.4217 143.332 82.2875 143.555 82.1417C143.961 81.8768 144.477 81.8527 144.897 82.0949L146.328 82.9198L149.018 78.2572L147.587 77.4316C147.168 77.1901 146.938 76.7305 146.962 76.2476C146.969 76.1155 146.972 75.9827 146.972 75.8485C146.972 75.7157 146.969 75.5836 146.962 75.4522C146.938 74.9679 147.169 74.5062 147.589 74.2641L149.018 73.4385ZM143.871 75.8478C143.871 78.2827 141.899 80.2552 139.464 80.2552C137.029 80.2552 135.052 78.2827 135.052 75.8478C135.052 73.413 137.029 71.4364 139.464 71.4364C141.899 71.4364 143.871 73.413 143.871 75.8478Z" fill="#EBEBEB"/>
<path d="M61.6222 209.047C52.6307 217.849 51.1219 231.467 53.0167 243.395C53.0655 243.665 53.4845 243.592 53.4845 243.338C53.4845 240.622 53.4027 237.931 53.4109 235.249C53.4598 235.126 53.501 235.011 53.5506 234.888C55.8967 233.181 58.0542 231.254 59.3917 228.612C60.8929 225.659 61.4832 222.328 62.6322 219.243C62.7388 218.948 62.4237 219.035 62.218 219.187C56.7491 223.22 55.0057 227.561 53.4364 233.362C53.51 230.351 53.7398 227.34 54.3879 224.33C55.5692 218.825 57.907 213.37 61.8616 209.284C62.0082 209.129 61.7784 208.891 61.6222 209.047Z" fill="#263238"/>
<path d="M63.3104 210.073C64.857 210.126 65.8271 212.598 67.0324 213.319C67.6702 213.703 68.2915 213.68 68.7394 213.051C69.9337 211.384 68.2949 209.327 66.7538 208.176C67.856 208.63 68.7703 209.426 69.9585 209.652C70.6781 209.784 71.2375 209.517 71.4054 208.785C71.9289 206.512 69.0779 205.501 67.1219 205.453C68.0699 204.794 70.7882 203.002 69.3441 202.121C67.8807 201.236 64.6912 203.799 63.6509 204.642C62.1222 205.883 60.2983 207.737 60.2295 209.677C60.1401 211.943 62.1201 210.549 63.3104 210.073Z" fill="#0e1625"/>
<path opacity="0.1" d="M63.3104 210.073C64.857 210.126 65.8271 212.598 67.0324 213.319C67.6702 213.703 68.2915 213.68 68.7394 213.051C69.9337 211.384 68.2949 209.327 66.7538 208.176C67.856 208.63 68.7703 209.426 69.9585 209.652C70.6781 209.784 71.2375 209.517 71.4054 208.785C71.9289 206.512 69.0779 205.501 67.1219 205.453C68.0699 204.794 70.7882 203.002 69.3441 202.121C67.8807 201.236 64.6912 203.799 63.6509 204.642C62.1222 205.883 60.2983 207.737 60.2295 209.677C60.1401 211.943 62.1201 210.549 63.3104 210.073Z" fill="black"/>
<path d="M62.8645 210.455C64.8425 209.555 68.641 210.849 68.9643 210.101C69.6193 208.578 66.5832 207.532 64.9443 207.33C66.4538 206.921 69.3455 206.269 69.2567 204.814C69.148 203.037 64.8212 204.565 62.6313 206.244C59.8724 208.36 59.8903 210.401 60.3464 210.81C60.9718 211.371 62.5377 210.603 62.8645 210.455Z" fill="#0e1625"/>
<path d="M41.1375 208.172C50.4564 216.626 52.4833 230.176 51.0433 242.168C51.0047 242.44 50.5837 242.382 50.5741 242.129C50.4709 239.415 50.4502 236.723 50.3401 234.043C50.2865 233.922 50.2411 233.809 50.1867 233.687C47.7773 232.071 45.5482 230.228 44.1117 227.639C42.499 224.745 41.7821 221.439 40.5176 218.4C40.3999 218.109 40.7178 218.183 40.9297 218.328C46.5479 222.15 48.4557 226.422 50.2445 232.158C50.056 229.152 49.712 226.152 48.9504 223.169C47.5606 217.713 45.0171 212.351 40.9104 208.419C40.7556 208.269 40.9758 208.022 41.1375 208.172Z" fill="#263238"/>
<path d="M39.4888 209.262C37.9449 209.372 37.0705 211.88 35.8933 212.646C35.2706 213.054 34.6494 213.054 34.1774 212.444C32.9204 210.823 34.4794 208.705 35.9758 207.497C34.8916 207.991 34.0082 208.822 32.8296 209.093C32.1155 209.252 31.5465 209.007 31.3504 208.283C30.7409 206.031 33.5513 204.912 35.5039 204.79C34.531 204.168 31.7467 202.48 33.1564 201.544C34.5847 200.604 37.8699 203.043 38.9411 203.848C40.516 205.029 42.4086 206.812 42.5517 208.748C42.7272 211.008 40.6962 209.691 39.4888 209.262Z" fill="#0e1625"/>
<path opacity="0.1" d="M39.4888 209.262C37.9449 209.372 37.0705 211.88 35.8933 212.646C35.2706 213.054 34.6494 213.054 34.1774 212.444C32.9204 210.823 34.4794 208.705 35.9758 207.497C34.8916 207.991 34.0082 208.822 32.8296 209.093C32.1155 209.252 31.5465 209.007 31.3504 208.283C30.7409 206.031 33.5513 204.912 35.5039 204.79C34.531 204.168 31.7467 202.48 33.1564 201.544C34.5847 200.604 37.8699 203.043 38.9411 203.848C40.516 205.029 42.4086 206.812 42.5517 208.748C42.7272 211.008 40.6962 209.691 39.4888 209.262Z" fill="black"/>
<path d="M39.9461 209.627C37.9358 208.804 34.1882 210.242 33.8373 209.506C33.1253 208.009 36.1187 206.849 37.7486 206.584C36.2247 206.233 33.3103 205.693 33.344 204.235C33.3846 202.455 37.7665 203.817 40.019 205.412C42.8563 207.421 42.9162 209.462 42.4759 209.887C41.8718 210.472 40.2777 209.764 39.9461 209.627Z" fill="#0e1625"/>
<path d="M50.668 230.505C51.356 234.96 52.2091 239.567 53.5617 243.872C53.6911 244.264 54.2731 244.164 54.2133 243.741C53.6009 239.622 52.485 235.578 51.8734 231.459C51.2514 227.291 50.9191 223.066 51.1579 218.85C51.55 211.909 53.4351 204.525 57.9649 199.094C58.0647 198.965 57.8535 198.783 57.751 198.902C48.6824 209.475 50.1252 222.439 50.1334 223.601C48.8496 219.224 47.5266 214.207 42.6707 209.749C42.4615 209.557 42.2978 209.648 42.3329 209.975C43.2011 218.094 45.4585 222.333 50.1658 226.673C50.2979 227.96 50.4637 229.24 50.668 230.505Z" fill="#263238"/>
<path d="M58.0479 200.31C59.6792 199.585 61.9296 201.663 63.5437 201.804C64.3982 201.881 65.0311 201.544 65.1798 200.667C65.5802 198.335 62.844 197.027 60.6658 196.609C62.0377 196.524 63.3868 196.89 64.7332 196.526C65.5465 196.3 65.9923 195.742 65.799 194.899C65.1976 192.276 61.7308 192.662 59.6771 193.598C60.3294 192.436 62.2468 189.208 60.3053 189.021C58.3417 188.84 56.3224 193.104 55.6675 194.503C54.7056 196.56 53.7466 199.401 54.652 201.449C55.6998 203.845 57.0524 201.402 58.0479 200.31Z" fill="#0e1625"/>
<path opacity="0.1" d="M58.0479 200.31C59.6792 199.585 61.9296 201.663 63.5437 201.804C64.3982 201.881 65.0311 201.544 65.1798 200.667C65.5802 198.335 62.844 197.027 60.6658 196.609C62.0377 196.524 63.3868 196.89 64.7332 196.526C65.5465 196.3 65.9923 195.742 65.799 194.899C65.1976 192.276 61.7308 192.662 59.6771 193.598C60.3294 192.436 62.2468 189.208 60.3053 189.021C58.3417 188.84 56.3224 193.104 55.6675 194.503C54.7056 196.56 53.7466 199.401 54.652 201.449C55.6998 203.845 57.0524 201.402 58.0479 200.31Z" fill="black"/>
<path d="M57.7744 200.933C59.374 199.004 63.9671 198.434 63.9252 197.495C63.8378 195.585 60.1618 196.029 58.3592 196.644C59.7194 195.46 62.3916 193.328 61.5667 191.863C60.5595 190.073 56.8394 193.837 55.4125 196.682C53.6148 200.266 54.6605 202.375 55.3403 202.569C56.2725 202.836 57.5109 201.251 57.7744 200.933Z" fill="#0e1625"/>
<path d="M44.7025 232.945L40.7031 263.503H65.0404C64.5389 260.795 60.0091 232.91 60.0091 232.91L44.7025 232.945Z" fill="#0e1625"/>
<path d="M30.3438 263.605L65.8831 263.438L101.423 263.377L172.502 263.262L243.582 263.377L279.121 263.437L314.661 263.605L279.121 263.774L243.582 263.834L172.502 263.948L101.423 263.833L65.8831 263.772L30.3438 263.605Z" fill="#263238"/>
<path d="M172.497 323.437C229.134 323.437 275.048 316.945 275.048 308.937C275.048 300.929 229.134 294.438 172.497 294.438C115.859 294.438 69.9453 300.929 69.9453 308.937C69.9453 316.945 115.859 323.437 172.497 323.437Z" fill="#EBEBEB"/>
<path d="M108.906 156.634L104.635 139.827L70.8964 148.401L66.4375 130.857L93.3988 69.4104L106.771 66.0117L119.773 117.171L130.569 114.427L135.059 132.093L124.263 134.837L128.535 151.645L108.906 156.634ZM85.7909 125.808L102.476 121.568L96.9572 99.8524L85.7909 125.808Z" fill="#263238"/>
<path d="M205.531 100.528C205.531 106.098 204.687 111.224 203 115.908C201.311 120.592 198.99 124.642 196.036 128.06C193.081 131.478 189.601 134.137 185.594 136.035C181.584 137.934 177.217 138.883 172.492 138.883C167.764 138.883 163.378 137.934 159.327 136.035C155.276 134.136 151.773 131.478 148.82 128.06C145.865 124.642 143.567 120.592 141.922 115.908C140.276 111.224 139.453 106.098 139.453 100.528C139.453 94.9587 140.276 89.8318 141.922 85.1485C143.567 80.4646 145.865 76.4144 148.82 72.9964C151.773 69.5784 155.276 66.9007 159.327 64.9585C163.378 63.0183 167.764 62.0469 172.492 62.0469C177.217 62.0469 181.583 63.0183 185.594 64.9585C189.601 66.9007 193.081 69.5784 196.036 72.9964C198.99 76.4144 201.311 80.4646 203 85.1485C204.687 89.8318 205.531 94.9587 205.531 100.528ZM185.151 100.528C185.151 94.6223 183.968 89.8318 181.606 86.1606C179.242 82.4901 176.205 80.6545 172.492 80.6545C168.61 80.6545 165.508 82.4901 163.188 86.1606C160.866 89.8318 159.707 94.6223 159.707 100.528C159.707 106.436 160.866 111.205 163.188 114.832C165.508 118.462 168.61 120.276 172.492 120.276C176.205 120.276 179.242 118.462 181.606 114.832C183.969 111.205 185.151 106.436 185.151 100.528Z" fill="#263238"/>
<path d="M241.878 153.397L244.651 136.279L210.289 130.711L213.184 112.843L262.382 67.2109L276.002 69.4174L267.56 121.524L278.557 123.305L275.642 141.299L264.645 139.518L261.872 156.636L241.878 153.397ZM232.947 115.917L249.941 118.67L253.524 96.5528L232.947 115.917Z" fill="#263238"/>
<path d="M144.069 49.8503C142.624 49.8503 141.313 49.5676 140.137 49.0027C138.96 48.4379 137.95 47.6873 137.107 46.7516C136.264 45.8166 135.611 44.7461 135.148 43.5421C134.685 42.3381 134.453 41.1058 134.453 39.8454C134.453 38.53 134.698 37.2702 135.189 36.0656C135.68 34.8616 136.357 33.7958 137.218 32.8691C138.08 31.9424 139.103 31.2062 140.289 30.6593C141.475 30.113 142.763 29.8398 144.153 29.8398C145.579 29.8398 146.88 30.1316 148.058 30.715C149.234 31.2984 150.239 32.0628 151.073 33.0081C151.907 33.9534 152.555 35.0281 153.019 36.2321C153.482 37.4367 153.714 38.6593 153.714 39.9012C153.714 41.2173 153.472 42.4715 152.991 43.6673C152.509 44.8623 151.842 45.9184 150.99 46.8355C150.137 47.7526 149.119 48.4846 147.933 49.0309C146.746 49.5772 145.459 49.8503 144.069 49.8503ZM138.344 39.8447C138.344 40.6972 138.473 41.5221 138.732 42.3181C138.992 43.1148 139.367 43.8193 139.858 44.4303C140.349 45.0419 140.951 45.5324 141.665 45.9033C142.378 46.2741 143.189 46.4592 144.097 46.4592C145.023 46.4592 145.843 46.2693 146.556 45.8895C147.27 45.5104 147.872 45.0047 148.363 44.3745C148.854 43.745 149.224 43.0364 149.475 42.2486C149.725 41.4609 149.85 40.66 149.85 39.8441C149.85 38.9923 149.715 38.1674 149.447 37.3707C149.178 36.574 148.798 35.8702 148.307 35.2585C147.816 34.6469 147.214 34.1612 146.501 33.7993C145.788 33.4381 144.986 33.2571 144.098 33.2571C143.171 33.2571 142.347 33.447 141.623 33.8268C140.901 34.2066 140.299 34.7068 139.817 35.3273C139.335 35.9486 138.97 36.6524 138.719 37.4395C138.469 38.2286 138.344 39.0295 138.344 39.8447Z" fill="#263238"/>
<path d="M163.019 49.9904C161.833 49.9904 160.768 49.7868 159.823 49.3788C158.878 48.9715 158.076 48.4197 157.418 47.7255C156.761 47.0306 156.256 46.2291 155.903 45.3209C155.551 44.4135 155.375 43.4585 155.375 42.4582C155.375 41.4393 155.551 40.4761 155.903 39.5679C156.255 38.6604 156.761 37.8589 157.418 37.164C158.076 36.4691 158.878 35.9181 159.823 35.5101C160.768 35.1028 161.833 34.8984 163.019 34.8984C164.204 34.8984 165.265 35.1028 166.201 35.5101C167.136 35.9181 167.934 36.4691 168.591 37.164C169.249 37.8589 169.754 38.6604 170.106 39.5679C170.458 40.4761 170.634 41.4393 170.634 42.4582C170.634 43.4585 170.458 44.4135 170.106 45.3209C169.754 46.2291 169.254 47.0299 168.606 47.7255C167.957 48.4204 167.16 48.9722 166.216 49.3788C165.27 49.7861 164.204 49.9904 163.019 49.9904ZM159.211 42.4582C159.211 43.107 159.308 43.6952 159.502 44.2229C159.697 44.7513 159.965 45.2095 160.308 45.5989C160.651 45.9876 161.054 46.289 161.517 46.5022C161.98 46.7155 162.48 46.8222 163.018 46.8222C163.555 46.8222 164.056 46.7155 164.519 46.5022C164.982 46.2897 165.385 45.9883 165.727 45.5989C166.07 45.2095 166.339 44.7465 166.533 44.2091C166.728 43.6718 166.825 43.0794 166.825 42.4307C166.825 41.8011 166.727 41.2177 166.533 40.6797C166.338 40.1424 166.07 39.6793 165.727 39.2899C165.384 38.9005 164.981 38.5999 164.519 38.3866C164.056 38.1733 163.555 38.0667 163.018 38.0667C162.48 38.0667 161.98 38.1781 161.517 38.4004C161.054 38.6226 160.651 38.9287 160.308 39.3175C159.965 39.7069 159.696 40.1699 159.502 40.7072C159.308 41.2452 159.211 41.8287 159.211 42.4582Z" fill="#263238"/>
<path d="M181.867 49.9904C180.718 49.9904 179.718 49.7358 178.866 49.226C178.014 48.7169 177.346 48.0269 176.865 47.1558V55.6327H173.141V35.1489H176.392V37.6497C176.929 36.798 177.624 36.1258 178.477 35.6346C179.328 35.1441 180.311 34.8984 181.422 34.8984C182.405 34.8984 183.312 35.098 184.146 35.4963C184.98 35.8947 185.698 36.432 186.3 37.1083C186.902 37.7846 187.375 38.5813 187.718 39.4984C188.061 40.4155 188.232 41.3842 188.232 42.4031C188.232 43.4592 188.074 44.4506 187.759 45.3767C187.444 46.3034 187.004 47.1097 186.439 47.795C185.873 48.4809 185.202 49.0176 184.424 49.407C183.646 49.7957 182.794 49.9904 181.867 49.9904ZM180.617 46.8222C181.173 46.8222 181.687 46.7018 182.16 46.461C182.632 46.2202 183.035 45.8961 183.368 45.4881C183.701 45.0808 183.961 44.6082 184.147 44.0702C184.332 43.5328 184.425 42.9776 184.425 42.4031C184.425 41.7915 184.323 41.2218 184.119 40.6941C183.915 40.1658 183.633 39.7076 183.271 39.3181C182.91 38.9294 182.484 38.6233 181.993 38.401C181.502 38.1788 180.969 38.0674 180.396 38.0674C180.043 38.0674 179.682 38.1279 179.312 38.2483C178.941 38.3687 178.599 38.54 178.283 38.7629C177.968 38.9852 177.686 39.2452 177.436 39.5411C177.186 39.8376 176.995 40.1623 176.866 40.5139V43.9326C177.2 44.7664 177.71 45.4565 178.395 46.0028C179.079 46.549 179.82 46.8222 180.617 46.8222Z" fill="#263238"/>
<path d="M196.259 49.9913C195.036 49.9913 193.84 49.7966 192.674 49.4078C191.506 49.0191 190.506 48.4625 189.672 47.7401L191.062 45.4058C191.951 46.036 192.817 46.5127 193.66 46.8368C194.504 47.1615 195.342 47.3232 196.176 47.3232C196.916 47.3232 197.5 47.1842 197.927 46.9063C198.352 46.6283 198.566 46.23 198.566 45.7112C198.566 45.1925 198.316 44.8127 197.815 44.5719C197.315 44.3311 196.5 44.0531 195.369 43.738C194.425 43.4787 193.618 43.2282 192.951 42.9874C192.284 42.7466 191.746 42.4735 191.339 42.1673C190.931 41.8619 190.635 41.5096 190.449 41.1113C190.264 40.7129 190.172 40.2354 190.172 39.6795C190.172 38.9385 190.315 38.2719 190.603 37.6781C190.89 37.0858 191.293 36.5801 191.812 36.1632C192.33 35.7462 192.938 35.427 193.632 35.2048C194.327 34.9826 195.081 34.8711 195.897 34.8711C196.99 34.8711 198.013 35.0286 198.968 35.3437C199.922 35.6589 200.798 36.168 201.594 36.8725L200.093 39.1236C199.352 38.5677 198.634 38.1604 197.939 37.901C197.244 37.6417 196.554 37.5123 195.869 37.5123C195.238 37.5123 194.71 37.6424 194.284 37.901C193.858 38.1604 193.644 38.5773 193.644 39.1518C193.644 39.4112 193.695 39.6245 193.798 39.791C193.899 39.9575 194.062 40.1061 194.284 40.2354C194.506 40.3655 194.798 40.4907 195.159 40.6104C195.521 40.7315 195.97 40.856 196.507 40.9854C197.508 41.2447 198.364 41.5041 199.078 41.7635C199.791 42.0229 200.374 42.3194 200.828 42.6524C201.283 42.9861 201.616 43.3706 201.83 43.8055C202.042 44.241 202.149 44.7645 202.149 45.3762C202.149 46.8031 201.621 47.9286 200.564 48.7529C199.511 49.5792 198.074 49.9913 196.259 49.9913Z" fill="#263238"/>
<path d="M205.297 42.2923V29.7852H209.021V42.2923H205.297ZM205.297 49.7131V45.5163H209.021V49.7131H205.297Z" fill="#263238"/>
<path d="M186.667 215.926H162.234V217.927H186.667V215.926Z" fill="#37474F"/>
<path d="M186.667 218.531H162.234V220.533H186.667V218.531Z" fill="#37474F"/>
<path d="M186.667 221.141H162.234V223.142H186.667V221.141Z" fill="#37474F"/>
<path d="M186.667 223.746H162.234V225.747H186.667V223.746Z" fill="#37474F"/>
<path d="M186.667 226.352H162.234V228.353H186.667V226.352Z" fill="#37474F"/>
<path d="M197.248 278.363H150.797V280.365H197.248V278.363Z" fill="#37474F"/>
<path d="M197.248 280.969H150.797V282.97H197.248V280.969Z" fill="#37474F"/>
<path d="M197.248 283.578H150.797V285.58H197.248V283.578Z" fill="#37474F"/>
<path d="M197.248 286.184H150.797V288.185H197.248V286.184Z" fill="#37474F"/>
<path d="M197.248 288.789H150.797V290.79H197.248V288.789Z" fill="#37474F"/>
<path d="M130.417 199.381C130.439 199.111 120.25 195.698 120.25 195.698L120.852 160.688L134.364 157.789L130.417 199.381Z" fill="#0e1625"/>
<path opacity="0.2" d="M130.417 199.381C130.439 199.111 120.25 195.698 120.25 195.698L120.852 160.688L134.364 157.789L130.417 199.381Z" fill="black"/>
<path d="M223.75 213.125C223.822 212.863 234.564 213.165 234.564 213.165L246.047 180.087L234.358 172.715L223.75 213.125Z" fill="#0e1625"/>
<path opacity="0.2" d="M223.75 213.125C223.822 212.863 234.564 213.165 234.564 213.165L246.047 180.087L234.358 172.715L223.75 213.125Z" fill="black"/>
<path d="M128.453 212.275C128.453 212.275 132.231 155.654 135.544 137.027C135.544 137.027 203.943 142.2 240.868 156.313C240.868 156.313 221.831 222.449 220.846 225.731C220.846 225.731 172.681 216.243 128.453 212.275Z" fill="#0e1625"/>
<path opacity="0.1" d="M189.512 144.586C188.4 151.403 187.274 158.219 186.11 165.027L182.584 185.446L182.394 185.158L205.312 190.602L216.759 193.376L228.193 196.205L216.699 193.633L205.217 191.006L182.279 185.648L182.047 185.593L182.089 185.359L185.739 164.962C186.965 158.164 188.232 151.374 189.512 144.586Z" fill="black"/>
<path opacity="0.1" d="M186.988 148.473C187 149.098 186.502 149.739 185.787 149.802C185.44 149.835 185.063 149.724 184.781 149.479C184.499 149.233 184.33 148.855 184.328 148.473C184.33 148.091 184.497 147.712 184.78 147.466C185.062 147.219 185.44 147.11 185.787 147.142C186.503 147.205 187 147.848 186.988 148.473ZM186.988 148.473C186.985 148.158 186.846 147.848 186.611 147.649C186.376 147.451 186.067 147.369 185.787 147.402C185.21 147.468 184.836 147.986 184.844 148.473C184.835 148.959 185.209 149.48 185.787 149.545C186.067 149.577 186.376 149.496 186.612 149.297C186.846 149.098 186.985 148.788 186.988 148.473Z" fill="black"/>
<path opacity="0.1" d="M185.793 156.895C185.805 157.519 185.307 158.162 184.591 158.224C184.245 158.257 183.868 158.146 183.586 157.901C183.303 157.655 183.135 157.277 183.133 156.895C183.135 156.513 183.302 156.134 183.585 155.888C183.866 155.641 184.245 155.532 184.591 155.564C185.308 155.627 185.806 156.271 185.793 156.895ZM185.793 156.895C185.79 156.58 185.65 156.27 185.416 156.071C185.18 155.872 184.872 155.791 184.592 155.824C184.015 155.89 183.641 156.408 183.649 156.895C183.64 157.381 184.013 157.902 184.592 157.967C184.872 157.999 185.181 157.918 185.416 157.718C185.651 157.52 185.79 157.21 185.793 156.895Z" fill="black"/>
<path opacity="0.1" d="M184.316 165.797C184.328 166.422 183.83 167.064 183.115 167.126C182.768 167.159 182.391 167.049 182.109 166.803C181.827 166.557 181.658 166.179 181.656 165.797C181.658 165.415 181.826 165.036 182.108 164.791C182.39 164.543 182.768 164.434 183.115 164.467C183.832 164.53 184.329 165.172 184.316 165.797ZM184.316 165.797C184.313 165.482 184.174 165.172 183.939 164.974C183.704 164.775 183.396 164.694 183.115 164.726C182.538 164.793 182.164 165.311 182.172 165.797C182.163 166.284 182.537 166.804 183.115 166.87C183.396 166.902 183.704 166.82 183.94 166.621C184.174 166.422 184.313 166.112 184.316 165.797Z" fill="black"/>
<path opacity="0.1" d="M182.832 174.699C182.845 175.324 182.346 175.966 181.63 176.029C181.284 176.061 180.907 175.951 180.625 175.705C180.342 175.46 180.174 175.081 180.172 174.699C180.173 174.318 180.342 173.939 180.624 173.693C180.905 173.445 181.284 173.337 181.63 173.369C182.347 173.431 182.845 174.075 182.832 174.699ZM182.832 174.699C182.829 174.384 182.689 174.075 182.454 173.876C182.219 173.677 181.91 173.596 181.63 173.628C181.053 173.695 180.679 174.213 180.687 174.699C180.678 175.186 181.052 175.707 181.63 175.772C181.91 175.804 182.219 175.722 182.455 175.524C182.689 175.324 182.829 175.015 182.832 174.699Z" fill="black"/>
<path opacity="0.1" d="M187.879 188.899C187.892 189.523 187.393 190.165 186.677 190.228C186.331 190.26 185.954 190.15 185.671 189.905C185.389 189.659 185.221 189.28 185.219 188.899C185.22 188.517 185.388 188.138 185.671 187.892C185.952 187.644 186.331 187.536 186.677 187.568C187.394 187.631 187.891 188.274 187.879 188.899ZM187.879 188.899C187.876 188.584 187.736 188.274 187.501 188.075C187.266 187.876 186.957 187.795 186.677 187.827C186.1 187.894 185.726 188.412 185.734 188.899C185.725 189.385 186.099 189.906 186.677 189.971C186.957 190.004 187.266 189.922 187.502 189.722C187.736 189.523 187.875 189.214 187.879 188.899Z" fill="black"/>
<path opacity="0.1" d="M196.277 190.946C196.29 191.57 195.791 192.213 195.076 192.275C194.729 192.307 194.352 192.197 194.07 191.951C193.788 191.706 193.619 191.327 193.617 190.946C193.619 190.564 193.787 190.185 194.069 189.939C194.351 189.691 194.729 189.583 195.076 189.615C195.793 189.678 196.29 190.321 196.277 190.946ZM196.277 190.946C196.274 190.63 196.135 190.321 195.9 190.122C195.665 189.923 195.356 189.842 195.076 189.874C194.499 189.941 194.125 190.459 194.133 190.946C194.124 191.432 194.498 191.953 195.076 192.018C195.356 192.05 195.665 191.969 195.901 191.769C196.135 191.57 196.274 191.261 196.277 190.946Z" fill="black"/>
<path opacity="0.1" d="M204.675 192.996C204.688 193.621 204.19 194.263 203.474 194.326C203.127 194.358 202.75 194.248 202.468 194.002C202.186 193.757 202.018 193.378 202.016 192.996C202.018 192.614 202.185 192.235 202.468 191.99C202.749 191.742 203.127 191.633 203.474 191.666C204.19 191.728 204.688 192.372 204.675 192.996ZM204.675 192.996C204.673 192.681 204.533 192.372 204.298 192.173C204.063 191.974 203.755 191.893 203.475 191.925C202.898 191.992 202.523 192.51 202.532 192.996C202.523 193.483 202.896 194.004 203.475 194.069C203.755 194.101 204.064 194.019 204.299 193.82C204.533 193.621 204.672 193.311 204.675 192.996Z" fill="black"/>
<path opacity="0.1" d="M213.082 195.047C213.095 195.672 212.596 196.314 211.88 196.376C211.534 196.409 211.157 196.299 210.875 196.053C210.592 195.807 210.424 195.429 210.422 195.047C210.424 194.665 210.591 194.286 210.874 194.041C211.155 193.793 211.534 193.684 211.88 193.717C212.597 193.779 213.094 194.422 213.082 195.047ZM213.082 195.047C213.079 194.732 212.939 194.422 212.705 194.224C212.469 194.025 212.161 193.944 211.881 193.976C211.304 194.043 210.93 194.561 210.938 195.047C210.929 195.534 211.303 196.054 211.881 196.12C212.161 196.151 212.47 196.07 212.705 195.871C212.939 195.672 213.079 195.362 213.082 195.047Z" fill="black"/>
<path opacity="0.1" d="M221.484 197.187C221.449 197.812 220.902 198.414 220.184 198.42C219.836 198.427 219.469 198.288 219.206 198.021C218.943 197.754 218.804 197.364 218.832 196.983C218.863 196.603 219.059 196.238 219.36 196.014C219.66 195.789 220.045 195.71 220.389 195.769C221.099 195.886 221.544 196.566 221.484 197.187ZM221.484 197.187C221.505 196.873 221.39 196.554 221.171 196.337C220.951 196.12 220.65 196.016 220.369 196.027C219.788 196.049 219.374 196.537 219.346 197.022C219.299 197.507 219.632 198.054 220.203 198.164C220.48 198.218 220.794 198.161 221.044 197.98C221.294 197.8 221.457 197.502 221.484 197.187Z" fill="black"/>
<path opacity="0.1" d="M181.355 183.602C181.368 184.227 180.869 184.869 180.154 184.931C179.807 184.964 179.43 184.854 179.148 184.608C178.866 184.362 178.697 183.984 178.695 183.602C178.697 183.22 178.865 182.841 179.147 182.595C179.429 182.348 179.807 182.238 180.154 182.271C180.871 182.334 181.368 182.977 181.355 183.602ZM181.355 183.602C181.352 183.287 181.213 182.977 180.977 182.778C180.742 182.58 180.434 182.498 180.154 182.531C179.577 182.597 179.202 183.116 179.211 183.602C179.202 184.088 179.575 184.609 180.154 184.675C180.434 184.706 180.743 184.625 180.977 184.426C181.213 184.227 181.352 183.917 181.355 183.602Z" fill="black"/>
<path opacity="0.2" d="M167.204 198.353C175.181 191.181 175.833 178.9 168.661 170.924C161.489 162.947 149.209 162.295 141.232 169.467C133.255 176.639 132.603 188.919 139.775 196.896C146.947 204.873 159.228 205.525 167.204 198.353Z" fill="black"/>
<path d="M168.782 189.426C171.828 181.38 167.774 172.389 159.729 169.344C151.683 166.298 142.693 170.352 139.647 178.397C136.602 186.443 140.655 195.434 148.7 198.479C156.746 201.525 165.737 197.471 168.782 189.426Z" fill="#263238"/>
<path d="M153.282 178.184L149.641 177.594L149.051 181.235L152.692 181.825L153.282 178.184Z" fill="#0e1625"/>
<path d="M150.227 173.953L146.586 173.363L145.996 177.005L149.638 177.595L150.227 173.953Z" fill="#0e1625"/>
<path d="M164.798 176.313L161.156 175.723L160.566 179.364L164.208 179.954L164.798 176.313Z" fill="#0e1625"/>
<path d="M147.876 188.438L144.234 187.848L143.644 191.489L147.286 192.079L147.876 188.438Z" fill="#0e1625"/>
<path d="M162.446 190.797L158.805 190.207L158.215 193.848L161.856 194.438L162.446 190.797Z" fill="#0e1625"/>
<path d="M152.11 185.387L148.469 184.797L147.879 188.438L151.52 189.028L152.11 185.387Z" fill="#0e1625"/>
<path d="M156.337 182.375L152.695 181.785L152.105 185.427L155.747 186.017L156.337 182.375Z" fill="#0e1625"/>
<path d="M160.563 179.363L156.922 178.773L156.332 182.415L159.973 183.005L160.563 179.363Z" fill="#0e1625"/>
<path d="M159.399 186.563L155.758 185.973L155.168 189.614L158.809 190.204L159.399 186.563Z" fill="#0e1625"/>
<path d="M221.373 204.345C228.172 196.048 226.957 183.81 218.66 177.011C210.362 170.212 198.125 171.427 191.326 179.724C184.527 188.022 185.742 200.26 194.039 207.058C202.337 213.857 214.574 212.642 221.373 204.345Z" fill="#0e1625"/>
<path opacity="0.2" d="M221.373 204.345C228.172 196.048 226.957 183.81 218.66 177.011C210.362 170.212 198.125 171.427 191.326 179.724C184.527 188.022 185.742 200.26 194.039 207.058C202.337 213.857 214.574 212.642 221.373 204.345Z" fill="black"/>
<path opacity="0.2" d="M225.244 196.537C225.154 196.919 225.052 197.289 224.937 197.658L187.078 189.583C187.168 188.908 187.289 188.232 187.448 187.55C189.927 177.117 200.398 170.667 210.839 173.145C221.273 175.625 227.723 186.096 225.244 196.537Z" fill="black"/>
<path d="M212.352 206.419C220.289 203.102 224.036 193.979 220.72 186.041C217.403 178.103 208.28 174.356 200.342 177.673C192.404 180.989 188.657 190.113 191.974 198.051C195.29 205.989 204.414 209.735 212.352 206.419Z" fill="#263238"/>
<path d="M210.269 183.535L206.68 182.682L202.434 200.546L206.023 201.399L210.269 183.535Z" fill="#0e1625"/>
<path d="M226.376 196.173L186.609 186.722C189.219 175.743 200.238 168.959 211.217 171.568C222.197 174.178 228.986 185.194 226.376 196.173Z" fill="#0e1625"/>
<path opacity="0.2" d="M226.376 196.173L186.609 186.722C189.219 175.743 200.238 168.959 211.217 171.568C222.197 174.178 228.986 185.194 226.376 196.173Z" fill="black"/>
<path opacity="0.1" d="M172.547 203.592C172.647 202.04 173.218 200.465 174.344 199.219C174.899 198.592 175.64 198.099 176.456 197.799C177.276 197.498 178.162 197.445 179.002 197.517C179.858 197.616 180.731 197.918 181.443 198.457C182.142 199.008 182.678 199.725 182.993 200.498C183.642 202.038 183.713 203.683 183.399 205.209C183.14 203.684 182.746 202.203 182.03 200.987C181.319 199.762 180.195 199 178.855 198.882C177.489 198.712 176.155 199.078 175.081 199.986C174.008 200.891 173.187 202.186 172.547 203.592Z" fill="black"/>
<path d="M133.773 163.98C133.934 161.905 134.168 159.84 134.364 157.77C134.585 155.703 134.812 153.637 135.063 151.575C135.302 149.511 135.571 147.451 135.835 145.39C136.094 143.329 136.393 141.273 136.669 139.214L136.743 138.664L137.3 138.699C141.782 138.981 146.254 139.343 150.72 139.803C152.952 140.032 155.182 140.291 157.409 140.577C159.632 140.897 161.858 141.191 164.068 141.596L150.64 140.765L137.227 139.897L137.857 139.382C137.553 141.437 137.269 143.495 136.946 145.548C136.629 147.6 136.316 149.654 135.973 151.704C135.643 153.755 135.288 155.803 134.927 157.85C134.543 159.893 134.194 161.942 133.773 163.98Z" fill="white"/>
<path d="M137 179.679C137.451 177.184 138.584 174.807 140.108 172.737C140.487 172.216 140.918 171.735 141.333 171.24C141.782 170.776 142.249 170.328 142.71 169.873C143.213 169.464 143.721 169.059 144.237 168.666C144.785 168.319 145.327 167.956 145.884 167.623C146.471 167.34 147.054 167.05 147.647 166.782L149.492 166.143L151.402 165.749C152.043 165.656 152.695 165.636 153.338 165.587C155.928 165.521 158.477 166.073 160.816 167.021C158.326 166.554 155.845 166.295 153.399 166.529C150.96 166.756 148.589 167.485 146.469 168.679C144.333 169.845 142.441 171.454 140.842 173.323C139.251 175.201 137.934 177.328 137 179.679Z" fill="white"/>
<path d="M190.578 184.922C191.369 182.513 192.82 180.315 194.615 178.475C195.062 178.012 195.556 177.595 196.035 177.162C196.544 176.765 197.069 176.385 197.588 175.998C198.143 175.662 198.701 175.331 199.267 175.013C199.858 174.745 200.444 174.46 201.043 174.207C201.663 174.009 202.281 173.802 202.904 173.618L204.82 173.24L206.767 173.114C207.415 173.109 208.062 173.18 208.706 173.22C211.281 173.512 213.728 174.411 215.914 175.672C213.513 174.867 211.092 174.267 208.637 174.161C206.189 174.05 203.74 174.445 201.476 175.335C199.199 176.195 197.103 177.527 195.262 179.157C193.425 180.798 191.827 182.722 190.578 184.922Z" fill="white"/>
<path d="M130.616 247.165C125.64 247.165 114.748 246.047 107.738 237.035C98.771 225.505 102.012 203.382 102.154 202.445L106.047 203.036C106.015 203.249 102.921 224.426 110.847 234.617C118.596 244.58 132.651 243.149 132.792 243.132L133.235 247.045C133.082 247.063 132.118 247.165 130.616 247.165Z" fill="#0e1625"/>
<path opacity="0.4" d="M130.616 247.165C125.64 247.165 114.748 246.047 107.738 237.035C98.771 225.505 102.012 203.382 102.154 202.445L106.047 203.036C106.015 203.249 102.921 224.426 110.847 234.617C118.596 244.58 132.651 243.149 132.792 243.132L133.235 247.045C133.082 247.063 132.118 247.165 130.616 247.165Z" fill="white"/>
<path d="M107.199 205.717C106.489 205.717 105.764 205.658 105.026 205.538C98.4583 204.475 95.5508 200.545 94.2677 197.435C92.9818 194.319 92.6846 190.548 93.3843 186.23L101.713 187.58C101.28 190.255 101.406 192.613 102.068 194.217C102.54 195.362 103.456 196.737 106.375 197.21C107.708 197.426 109.15 197.311 110.659 195.035C111.824 193.278 112.524 190.886 112.769 189.371L121.098 190.72C120.906 191.912 120.089 196.081 117.691 199.697C115.084 203.631 111.413 205.717 107.199 205.717Z" fill="#0e1625"/>
<path d="M138.849 258.437C138.835 258.258 131.793 257.133 131.793 257.133L128.375 234.15L136.904 230.781L138.849 258.437Z" fill="#0e1625"/>
<path opacity="0.2" d="M138.849 258.437C138.835 258.258 131.793 257.133 131.793 257.133L128.375 234.15L136.904 230.781L138.849 258.437Z" fill="black"/>
<path d="M208.469 258.478C208.487 258.299 215.552 257.33 215.552 257.33L219.477 234.428L211.025 230.871L208.469 258.478Z" fill="#0e1625"/>
<path opacity="0.2" d="M208.469 258.478C208.487 258.299 215.552 257.33 215.552 257.33L219.477 234.428L211.025 230.871L208.469 258.478Z" fill="black"/>
<path d="M135.923 225.636C135.923 225.636 192.879 223.2 212.119 226.407C212.119 226.407 206.47 281.52 206.164 282.589C206.164 282.589 149.507 282.436 140.65 282.589C140.65 282.589 135.85 245.941 135.923 225.636Z" fill="#0e1625"/>
<path opacity="0.2" d="M153.219 240.736C153.219 240.736 184.312 239.508 194.815 241.124C194.815 241.124 191.731 268.915 191.564 269.454C191.564 269.454 160.635 269.377 155.8 269.454C155.799 269.454 153.674 250.434 153.219 240.736Z" fill="black"/>
<path opacity="0.2" d="M157.471 269.441C156.759 269.441 156.194 269.45 155.799 269.455C155.799 269.455 153.678 250.431 153.219 240.733C153.219 240.733 153.926 240.705 155.161 240.664L157.471 269.441Z" fill="black"/>
<path d="M166.655 247.591C164.912 247.042 163.055 248.009 162.506 249.751C161.956 251.495 162.925 253.35 164.668 253.899C166.409 254.448 168.264 253.482 168.813 251.739C169.362 249.998 168.396 248.14 166.655 247.591ZM168.43 251.618C167.947 253.149 166.317 253.998 164.788 253.516C163.259 253.034 162.409 251.405 162.892 249.873C163.374 248.344 165.004 247.494 166.535 247.977C168.062 248.459 168.912 250.089 168.43 251.618ZM166.655 247.591C164.912 247.042 163.055 248.009 162.506 249.751C161.956 251.495 162.925 253.35 164.668 253.899C166.409 254.448 168.264 253.482 168.813 251.739C169.362 249.998 168.396 248.14 166.655 247.591ZM168.43 251.618C167.947 253.149 166.317 253.998 164.788 253.516C163.259 253.034 162.409 251.405 162.892 249.873C163.374 248.344 165.004 247.494 166.535 247.977C168.062 248.459 168.912 250.089 168.43 251.618ZM166.655 247.591C164.912 247.042 163.055 248.009 162.506 249.751C161.956 251.495 162.925 253.35 164.668 253.899C166.409 254.448 168.264 253.482 168.813 251.739C169.362 249.998 168.396 248.14 166.655 247.591ZM168.43 251.618C167.947 253.149 166.317 253.998 164.788 253.516C163.259 253.034 162.409 251.405 162.892 249.873C163.374 248.344 165.004 247.494 166.535 247.977C168.062 248.459 168.912 250.089 168.43 251.618ZM167.757 244.097C164.082 242.94 160.169 244.981 159.012 248.651C157.855 252.322 159.892 256.237 163.565 257.394C167.235 258.55 171.151 256.511 172.307 252.84C173.465 249.171 171.426 245.253 167.757 244.097ZM169.305 251.893C168.671 253.904 166.522 255.024 164.513 254.391C162.504 253.758 161.384 251.608 162.017 249.597C162.65 247.586 164.801 246.468 166.81 247.101C168.818 247.735 169.938 249.884 169.305 251.893ZM168.813 251.74C169.362 249.998 168.396 248.141 166.655 247.592C164.912 247.043 163.055 248.01 162.506 249.751C161.956 251.496 162.925 253.351 164.668 253.9C166.409 254.449 168.264 253.482 168.813 251.74ZM168.43 251.618C167.947 253.149 166.317 253.998 164.788 253.516C163.259 253.034 162.409 251.405 162.892 249.873C163.374 248.344 165.004 247.494 166.535 247.977C168.062 248.459 168.912 250.089 168.43 251.618ZM166.655 247.591C164.912 247.042 163.055 248.009 162.506 249.751C161.956 251.495 162.925 253.35 164.668 253.899C166.409 254.448 168.264 253.482 168.813 251.739C169.362 249.998 168.396 248.14 166.655 247.591ZM168.43 251.618C167.947 253.149 166.317 253.998 164.788 253.516C163.259 253.034 162.409 251.405 162.892 249.873C163.374 248.344 165.004 247.494 166.535 247.977C168.062 248.459 168.912 250.089 168.43 251.618ZM166.655 247.591C164.912 247.042 163.055 248.009 162.506 249.751C161.956 251.495 162.925 253.35 164.668 253.899C166.409 254.448 168.264 253.482 168.813 251.739C169.362 249.998 168.396 248.14 166.655 247.591ZM168.43 251.618C167.947 253.149 166.317 253.998 164.788 253.516C163.259 253.034 162.409 251.405 162.892 249.873C163.374 248.344 165.004 247.494 166.535 247.977C168.062 248.459 168.912 250.089 168.43 251.618Z" fill="#0e1625"/>
<path d="M164.931 257.524L162.375 256.719L161.945 258.573L164.219 259.289L164.931 257.524Z" fill="#0e1625"/>
<path d="M160.337 255.131L159.098 252.754L157.484 253.762L158.585 255.876L160.337 255.131Z" fill="#0e1625"/>
<path d="M158.781 250.188L159.586 247.632L157.733 247.203L157.016 249.476L158.781 250.188Z" fill="#0e1625"/>
<path d="M161.175 245.595L163.552 244.357L162.544 242.742L160.43 243.844L161.175 245.595Z" fill="#0e1625"/>
<path d="M166.117 244.038L168.674 244.844L169.102 242.99L166.829 242.273L166.117 244.038Z" fill="#0e1625"/>
<path d="M170.711 246.432L171.949 248.809L173.563 247.802L172.462 245.688L170.711 246.432Z" fill="#0e1625"/>
<path d="M172.267 251.375L171.461 253.931L173.315 254.36L174.031 252.086L172.267 251.375Z" fill="#0e1625"/>
<path d="M169.878 255.969L167.5 257.207L168.508 258.821L170.622 257.72L169.878 255.969Z" fill="#0e1625"/>
<path d="M177.893 257.319C176.863 256.647 175.483 256.94 174.813 257.969C174.14 259.001 174.434 260.379 175.464 261.051C176.494 261.721 177.871 261.43 178.543 260.399C179.214 259.37 178.923 257.99 177.893 257.319ZM178.317 260.251C177.727 261.157 176.516 261.413 175.611 260.823C174.707 260.235 174.451 259.024 175.04 258.118C175.629 257.214 176.84 256.958 177.746 257.547C178.65 258.136 178.906 259.346 178.317 260.251ZM177.893 257.319C176.863 256.647 175.483 256.94 174.813 257.969C174.14 259.001 174.434 260.379 175.464 261.051C176.494 261.721 177.871 261.43 178.543 260.399C179.214 259.37 178.923 257.99 177.893 257.319ZM178.317 260.251C177.727 261.157 176.516 261.413 175.611 260.823C174.707 260.235 174.451 259.024 175.04 258.118C175.629 257.214 176.84 256.958 177.746 257.547C178.65 258.136 178.906 259.346 178.317 260.251ZM177.893 257.319C176.863 256.647 175.483 256.94 174.813 257.969C174.14 259.001 174.434 260.379 175.464 261.051C176.494 261.721 177.871 261.43 178.543 260.399C179.214 259.37 178.923 257.99 177.893 257.319ZM178.317 260.251C177.727 261.157 176.516 261.413 175.611 260.823C174.707 260.235 174.451 259.024 175.04 258.118C175.629 257.214 176.84 256.958 177.746 257.547C178.65 258.136 178.906 259.346 178.317 260.251ZM179.24 255.253C177.066 253.838 174.16 254.454 172.745 256.625C171.331 258.797 171.944 261.704 174.117 263.118C176.288 264.531 179.196 263.917 180.61 261.745C182.024 259.575 181.411 256.666 179.24 255.253ZM178.834 260.588C178.059 261.778 176.463 262.116 175.275 261.342C174.087 260.568 173.748 258.971 174.523 257.782C175.298 256.592 176.894 256.256 178.083 257.03C179.27 257.803 179.608 259.399 178.834 260.588ZM178.543 260.399C179.214 259.369 178.923 257.99 177.893 257.32C176.863 256.648 175.483 256.94 174.813 257.97C174.14 259.002 174.434 260.38 175.464 261.051C176.494 261.722 177.871 261.43 178.543 260.399ZM178.317 260.251C177.727 261.157 176.516 261.413 175.611 260.823C174.707 260.235 174.451 259.024 175.04 258.118C175.629 257.214 176.84 256.958 177.746 257.547C178.65 258.136 178.906 259.346 178.317 260.251ZM177.893 257.319C176.863 256.647 175.483 256.94 174.813 257.969C174.14 259.001 174.434 260.379 175.464 261.051C176.494 261.721 177.871 261.43 178.543 260.399C179.214 259.37 178.923 257.99 177.893 257.319ZM178.317 260.251C177.727 261.157 176.516 261.413 175.611 260.823C174.707 260.235 174.451 259.024 175.04 258.118C175.629 257.214 176.84 256.958 177.746 257.547C178.65 258.136 178.906 259.346 178.317 260.251ZM177.893 257.319C176.863 256.647 175.483 256.94 174.813 257.969C174.14 259.001 174.434 260.379 175.464 261.051C176.494 261.721 177.871 261.43 178.543 260.399C179.214 259.37 178.923 257.99 177.893 257.319ZM178.317 260.251C177.727 261.157 176.516 261.413 175.611 260.823C174.707 260.235 174.451 259.024 175.04 258.118C175.629 257.214 176.84 256.958 177.746 257.547C178.65 258.136 178.906 259.346 178.317 260.251Z" fill="#DBDBDB"/>
<path d="M174.977 263.442L173.465 262.457L172.852 263.582L174.197 264.458L174.977 263.442Z" fill="#DBDBDB"/>
<path d="M172.43 261.062L172.058 259.297L170.828 259.659L171.16 261.229L172.43 261.062Z" fill="#DBDBDB"/>
<path d="M172.313 257.574L173.298 256.062L172.173 255.449L171.297 256.794L172.313 257.574Z" fill="#DBDBDB"/>
<path d="M174.698 255.027L176.463 254.655L176.101 253.426L174.531 253.757L174.698 255.027Z" fill="#DBDBDB"/>
<path d="M178.188 254.911L179.699 255.895L180.313 254.77L178.968 253.895L178.188 254.911Z" fill="#DBDBDB"/>
<path d="M180.734 257.295L181.107 259.061L182.336 258.699L182.004 257.129L180.734 257.295Z" fill="#DBDBDB"/>
<path d="M180.844 260.781L179.859 262.293L180.984 262.906L181.86 261.561L180.844 260.781Z" fill="#DBDBDB"/>
<path d="M178.469 263.328L176.703 263.701L177.064 264.93L178.635 264.598L178.469 263.328Z" fill="#DBDBDB"/>
<path d="M210.734 276.169L212.924 276.576L219.184 234.177L216.69 233.719L210.734 276.169Z" fill="#0e1625"/>
<path d="M191.562 269.45L194.813 241.12L216.694 233.719C216.694 233.719 210.739 276.627 210.739 276.169L191.562 269.45Z" fill="#0e1625"/>
<path opacity="0.4" d="M191.562 269.45L194.813 241.12L216.694 233.719C216.694 233.719 210.739 276.627 210.739 276.169L191.562 269.45Z" fill="white"/>
<path d="M138.535 242.273C138.178 239.926 137.986 237.56 137.839 235.192C137.772 234.007 137.741 232.821 137.715 231.635C137.692 230.449 137.671 229.261 137.706 228.075L137.716 227.763L138.019 227.746C142.366 227.513 146.71 227.228 151.06 227.038C155.408 226.823 159.756 226.628 164.108 226.492C159.77 226.885 155.43 227.219 151.089 227.535C146.749 227.874 142.404 228.117 138.062 228.413L138.374 228.085L138.356 231.628L138.398 235.173C138.404 236.355 138.425 237.537 138.46 238.72L138.535 242.273Z" fill="white"/>
<path d="M197.875 241.54C199.23 240.896 200.607 240.298 202 239.745C203.389 239.18 204.791 238.644 206.209 238.153C207.629 237.668 209.054 237.193 210.503 236.791C211.949 236.384 213.409 236.007 214.9 235.763L215.267 235.703L215.202 236.053C214.858 237.888 214.499 239.719 214.075 241.54C214.234 239.677 214.458 237.824 214.698 235.974L214.999 236.264C213.554 236.609 212.12 237.012 210.69 237.434C209.262 237.861 207.838 238.311 206.418 238.774L197.875 241.54Z" fill="white"/>
<path opacity="0.1" d="M148.008 225.75L148.377 232.836L148.692 239.923L149.238 254.102L149.665 268.284L149.836 275.377L149.953 282.471L149.583 275.386L149.268 268.298L148.723 254.12L148.297 239.937L148.125 232.845L148.008 225.75Z" fill="black"/>
<path opacity="0.1" d="M145.976 230.02C146.112 230.631 145.75 231.359 145.061 231.561C144.728 231.661 144.337 231.628 144.012 231.442C143.686 231.257 143.446 230.92 143.369 230.546C143.295 230.171 143.385 229.766 143.613 229.47C143.84 229.172 144.19 228.99 144.536 228.953C145.25 228.873 145.865 229.406 145.976 230.02ZM145.976 230.02C145.91 229.712 145.712 229.436 145.443 229.288C145.174 229.139 144.855 229.12 144.587 229.208C144.034 229.387 143.769 229.969 143.874 230.445C143.961 230.923 144.431 231.36 145.011 231.31C145.291 231.286 145.578 231.145 145.769 230.903C145.96 230.662 146.035 230.33 145.976 230.02Z" fill="black"/>
<path opacity="0.1" d="M146.46 238.516C146.596 239.127 146.234 239.855 145.546 240.057C145.212 240.157 144.821 240.124 144.496 239.939C144.171 239.753 143.93 239.416 143.853 239.042C143.78 238.667 143.869 238.263 144.098 237.966C144.325 237.668 144.674 237.486 145.02 237.449C145.734 237.37 146.349 237.902 146.46 238.516ZM146.46 238.516C146.395 238.208 146.197 237.932 145.928 237.784C145.658 237.635 145.339 237.617 145.071 237.704C144.519 237.883 144.254 238.466 144.358 238.941C144.446 239.419 144.915 239.856 145.495 239.806C145.776 239.782 146.063 239.641 146.254 239.399C146.444 239.158 146.52 238.826 146.46 238.516Z" fill="black"/>
<path opacity="0.1" d="M146.773 247.536C146.909 248.146 146.547 248.874 145.858 249.076C145.525 249.177 145.134 249.144 144.808 248.958C144.483 248.773 144.243 248.436 144.166 248.062C144.092 247.687 144.182 247.282 144.41 246.986C144.637 246.687 144.987 246.505 145.333 246.469C146.047 246.389 146.662 246.922 146.773 247.536ZM146.773 247.536C146.707 247.228 146.509 246.952 146.24 246.803C145.97 246.655 145.652 246.636 145.384 246.723C144.831 246.903 144.566 247.484 144.671 247.96C144.758 248.439 145.227 248.875 145.807 248.825C146.088 248.801 146.375 248.66 146.566 248.418C146.757 248.177 146.832 247.846 146.773 247.536Z" fill="black"/>
<path opacity="0.1" d="M147.085 256.556C147.221 257.166 146.86 257.894 146.171 258.096C145.837 258.196 145.446 258.163 145.121 257.978C144.796 257.793 144.555 257.455 144.478 257.081C144.405 256.706 144.494 256.302 144.723 256.005C144.95 255.707 145.298 255.525 145.645 255.488C146.359 255.409 146.974 255.941 147.085 256.556ZM147.085 256.556C147.02 256.247 146.822 255.971 146.553 255.823C146.283 255.674 145.964 255.656 145.696 255.743C145.144 255.923 144.879 256.504 144.983 256.98C145.071 257.458 145.54 257.895 146.12 257.845C146.401 257.821 146.688 257.68 146.878 257.438C147.069 257.197 147.144 256.865 147.085 256.556Z" fill="black"/>
<path opacity="0.1" d="M147.398 265.575C147.534 266.185 147.172 266.913 146.483 267.115C146.15 267.216 145.759 267.183 145.433 266.997C145.108 266.812 144.868 266.475 144.791 266.101C144.717 265.726 144.807 265.321 145.035 265.025C145.262 264.727 145.612 264.544 145.958 264.508C146.672 264.428 147.287 264.96 147.398 265.575ZM147.398 265.575C147.332 265.267 147.134 264.991 146.865 264.842C146.595 264.694 146.277 264.675 146.009 264.763C145.456 264.942 145.191 265.523 145.296 266C145.383 266.478 145.852 266.915 146.432 266.864C146.713 266.84 147 266.7 147.191 266.458C147.382 266.216 147.457 265.884 147.398 265.575Z" fill="black"/>
<path opacity="0.1" d="M147.702 274.595C147.839 275.205 147.477 275.933 146.788 276.135C146.454 276.235 146.064 276.202 145.738 276.017C145.413 275.832 145.173 275.494 145.096 275.12C145.022 274.746 145.111 274.341 145.34 274.044C145.567 273.746 145.916 273.564 146.262 273.527C146.977 273.448 147.591 273.98 147.702 274.595ZM147.702 274.595C147.637 274.286 147.439 274.01 147.17 273.862C146.9 273.713 146.582 273.695 146.313 273.782C145.761 273.962 145.496 274.543 145.601 275.019C145.688 275.498 146.157 275.934 146.737 275.884C147.018 275.86 147.305 275.719 147.495 275.477C147.687 275.235 147.762 274.904 147.702 274.595Z" fill="black"/>
<path d="M150.484 288.38L118.234 298.152L119.376 301.92L151.626 292.148L150.484 288.38Z" fill="#0e1625"/>
<path opacity="0.4" d="M150.484 288.38L118.234 298.152L119.376 301.92L151.626 292.148L150.484 288.38Z" fill="white"/>
<path d="M135.057 291.775L131.305 292.969L133.077 298.543L136.83 297.349L135.057 291.775Z" fill="#0e1625"/>
<path d="M119.128 307.439L110.806 271.402L85.6875 277.358L98.0564 312.478L119.128 307.439Z" fill="#0e1625"/>
<path d="M124.708 305.607L119.135 307.439L110.812 271.402L118.829 273.311L124.708 305.607Z" fill="#0e1625"/>
<path opacity="0.2" d="M124.708 305.607L119.135 307.439L110.812 271.402L118.829 273.311L124.708 305.607Z" fill="black"/>
<path d="M151.072 294.539C153.433 294.539 155.347 292.625 155.347 290.264C155.347 287.902 153.433 285.988 151.072 285.988C148.711 285.988 146.797 287.902 146.797 290.264C146.797 292.625 148.711 294.539 151.072 294.539Z" fill="#0e1625"/>
<path d="M195.056 288.277L193.906 292.043L226.136 301.883L227.286 298.117L195.056 288.277Z" fill="#0e1625"/>
<path opacity="0.4" d="M195.056 288.277L193.906 292.043L226.136 301.883L227.286 298.117L195.056 288.277Z" fill="white"/>
<path d="M210.512 291.692L208.727 297.262L212.476 298.463L214.261 292.894L210.512 291.692Z" fill="#0e1625"/>
<path d="M226.406 307.414L234.805 271.395L259.911 277.404L247.468 312.498L226.406 307.414Z" fill="#0e1625"/>
<path d="M220.836 305.57L226.405 307.414L234.804 271.395L226.784 273.287L220.836 305.57Z" fill="#0e1625"/>
<path opacity="0.2" d="M220.836 305.57L226.405 307.414L234.804 271.395L226.784 273.287L220.836 305.57Z" fill="black"/>
<path d="M190.219 290.157C190.214 292.518 192.124 294.436 194.485 294.442C196.846 294.447 198.764 292.537 198.77 290.175C198.775 287.814 196.865 285.896 194.504 285.891C192.142 285.885 190.224 287.796 190.219 290.157Z" fill="#0e1625"/>
<path d="M222.494 245.703C222.595 245.608 232.954 236 245.14 239.286C257.601 242.649 267.889 261.417 267.991 261.607L271.454 259.735C271.004 258.902 260.273 239.285 246.164 235.486C231.814 231.616 220.266 242.389 219.781 242.85L222.494 245.703Z" fill="#0e1625"/>
<path opacity="0.4" d="M222.494 245.703C222.595 245.608 232.954 236 245.14 239.286C257.601 242.649 267.889 261.417 267.991 261.607L271.454 259.735C271.004 258.902 260.273 239.285 246.164 235.486C231.814 231.616 220.266 242.389 219.781 242.85L222.494 245.703Z" fill="white"/>
<path d="M263.397 280.504L270.859 276.565C270.143 275.209 269.261 272.878 269.133 270.773C268.967 268.046 270.049 267.087 271.243 266.456C273.858 265.075 275.418 265.623 276.484 266.25C277.979 267.133 279.499 268.939 280.764 271.336L288.226 267.397C286.184 263.529 283.677 260.698 280.773 258.984C277.875 257.276 273.187 255.888 267.304 258.994C262.717 261.415 260.376 265.781 260.711 271.285C260.974 275.617 262.834 279.437 263.397 280.504Z" fill="#0e1625"/>
<path d="M224.062 232.562C225.68 231.444 227.335 230.392 228.997 229.349C230.654 228.299 232.339 227.296 234.024 226.293C235.717 225.305 237.411 224.317 239.132 223.375L241.715 221.965C242.589 221.516 243.45 221.048 244.335 220.617C243.53 221.182 242.702 221.708 241.887 222.255L239.401 223.831C237.743 224.88 236.059 225.883 234.374 226.885C232.68 227.873 230.986 228.86 229.264 229.801C227.547 230.751 225.824 231.688 224.062 232.562Z" fill="#263238"/>
<path d="M219.781 248.66C222.097 249.98 224.292 251.469 226.458 253C228.612 254.548 230.735 256.138 232.736 257.899C230.418 256.581 228.224 255.092 226.059 253.559C223.906 252.011 221.783 250.421 219.781 248.66Z" fill="#263238"/>
<path d="M223.586 246.68C225.373 247.223 227.133 247.836 228.888 248.46C230.647 249.077 232.386 249.744 234.125 250.411C235.858 251.094 237.59 251.778 239.303 252.511L241.872 253.613C242.719 254.004 243.575 254.373 244.414 254.784C243.519 254.519 242.638 254.212 241.75 253.928L239.111 253.004C237.353 252.387 235.614 251.721 233.876 251.053C232.143 250.369 230.41 249.686 228.698 248.951C226.982 248.224 225.271 247.487 223.586 246.68Z" fill="#263238"/>
<path d="M228.664 234.072C230.377 233.627 232.103 233.256 233.831 232.896C235.557 232.529 237.294 232.215 239.029 231.901C240.768 231.603 242.507 231.306 244.256 231.062L246.878 230.698C247.757 230.602 248.631 230.482 249.514 230.406C248.659 230.636 247.796 230.822 246.937 231.03L244.347 231.583C242.62 231.949 240.884 232.264 239.148 232.577C237.409 232.873 235.671 233.171 233.922 233.414C232.176 233.667 230.426 233.907 228.664 234.072Z" fill="#263238"/>
<path d="M187.375 244.783C187.665 243.391 188.132 242.035 188.737 240.741C189.341 239.449 190.082 238.21 191.01 237.109C191.942 236.019 193.088 235.058 194.468 234.526C195.847 234.012 197.426 234.016 198.81 234.569C200.21 235.114 201.314 236.291 201.909 237.643C202.218 238.319 202.411 239.043 202.491 239.784C202.561 240.524 202.531 241.293 202.236 242.032C202.086 242.395 201.852 242.762 201.476 243.006C201.295 243.133 201.072 243.205 200.854 243.239C200.64 243.27 200.419 243.26 200.169 243.173C199.709 242.977 199.478 242.607 199.28 242.273C199.103 241.927 198.967 241.572 198.874 241.213C198.488 239.777 198.448 238.317 198.516 236.873C198.721 233.996 199.477 231.119 201.027 228.643C201.809 227.42 202.79 226.294 204.01 225.471C205.214 224.643 206.624 224.072 208.063 223.907C208.771 223.736 209.502 223.752 210.226 223.717C210.588 223.678 210.948 223.766 211.309 223.785C211.668 223.832 212.035 223.826 212.384 223.93C213.813 224.187 215.157 224.76 216.412 225.455C217.659 226.174 218.771 227.097 219.785 228.099C220.79 229.111 221.704 230.218 222.439 231.437C220.812 229.115 218.717 227.099 216.247 225.749C215.004 225.103 213.69 224.573 212.307 224.358C211.969 224.264 211.615 224.28 211.269 224.242C210.922 224.231 210.576 224.152 210.228 224.199C209.533 224.25 208.834 224.246 208.157 224.429C206.77 224.624 205.483 225.182 204.351 225.96C203.213 226.738 202.295 227.807 201.557 228.976C200.097 231.342 199.381 234.137 199.203 236.914C199.125 238.302 199.16 239.72 199.507 241.038C199.673 241.669 199.971 242.379 200.405 242.578C200.461 242.583 200.498 242.613 200.565 242.615C200.633 242.609 200.705 242.624 200.769 242.608C200.9 242.586 201.027 242.551 201.136 242.473C201.362 242.331 201.541 242.079 201.661 241.79C201.903 241.206 201.947 240.512 201.886 239.844C201.819 239.172 201.647 238.505 201.369 237.885C200.825 236.648 199.859 235.578 198.609 235.054C197.365 234.526 195.908 234.483 194.617 234.932C193.319 235.398 192.199 236.293 191.264 237.329C189.389 239.428 188.126 242.053 187.375 244.783Z" fill="#263238"/>
<path d="M123.797 262.615C124.461 261.363 125.437 260.28 126.577 259.424C127.716 258.568 129.023 257.905 130.43 257.579C131.829 257.244 133.333 257.239 134.733 257.664C136.133 258.083 137.395 258.904 138.405 259.951C139.422 260.996 140.182 262.266 140.704 263.617C141.217 264.97 141.525 266.42 141.416 267.903C141.342 268.632 141.194 269.42 140.617 270.05C140.331 270.361 139.889 270.566 139.458 270.573C139.044 270.569 138.652 270.507 138.272 270.304C137.895 270.11 137.592 269.771 137.419 269.397C137.244 269.022 137.178 268.625 137.161 268.241C137.133 267.471 137.3 266.738 137.526 266.042C137.988 264.648 138.746 263.391 139.632 262.253C140.523 261.115 141.571 260.103 142.746 259.259C145.077 257.567 148.047 256.626 150.943 257.005C152.373 257.199 153.792 257.611 155.043 258.341C156.306 259.046 157.4 260.025 158.293 261.144C159.184 262.267 159.879 263.53 160.414 264.845C160.95 266.161 161.344 267.535 161.538 268.937C160.961 266.18 159.827 263.503 158.021 261.366C157.126 260.298 156.048 259.382 154.825 258.736C153.612 258.066 152.251 257.707 150.881 257.554C148.129 257.254 145.337 258.132 143.117 259.775C140.9 261.406 139.086 263.682 138.169 266.258C137.952 266.899 137.802 267.571 137.822 268.218C137.837 268.86 138.063 269.476 138.578 269.736C138.821 269.876 139.15 269.93 139.438 269.935C139.717 269.927 139.964 269.817 140.163 269.611C140.565 269.192 140.737 268.507 140.798 267.849C140.906 266.505 140.628 265.114 140.147 263.83C139.66 262.542 138.936 261.34 138.001 260.335C137.067 259.331 135.891 258.549 134.589 258.123C133.289 257.69 131.864 257.654 130.51 257.941C127.802 258.517 125.292 260.211 123.797 262.615Z" fill="#263238"/>
<path d="M91.9731 96.4662C91.8953 93.6351 91.2947 90.7847 89.9772 88.301C89.3174 87.0709 88.4422 85.9343 87.2933 85.1727C86.1464 84.4282 84.7222 84.1221 83.3882 84.3381C82.0487 84.5487 80.8563 85.357 80.0321 86.4283C79.6145 86.9635 79.2877 87.5697 79.062 88.2067C78.8433 88.8411 78.7208 89.525 78.8157 90.1503C78.8632 90.4593 78.9767 90.7462 79.1625 90.9381C79.2506 91.0406 79.3655 91.1046 79.4872 91.1569C79.5457 91.1878 79.6193 91.1906 79.6833 91.2119C79.7494 91.2257 79.792 91.2057 79.8477 91.214C80.3163 91.1246 80.7759 90.506 81.0868 89.9336C81.7384 88.7365 82.1113 87.3667 82.3665 86.001C82.8557 83.2621 82.8282 80.3773 81.9743 77.7313C81.5382 76.4192 80.9011 75.1623 79.9819 74.1351C79.0676 73.11 77.9516 72.261 76.6513 71.7402C76.0369 71.4017 75.3572 71.2386 74.6953 71.0226C74.3685 70.8946 74.0135 70.8891 73.6736 70.8155C73.3289 70.7708 72.9891 70.6703 72.6382 70.6806C71.2436 70.5589 69.8415 70.7604 68.4799 71.0914C65.7589 71.8131 63.2436 73.2703 61.1094 75.1368C62.1139 74.1289 63.2656 73.2716 64.4833 72.5286C65.7073 71.7979 67.0062 71.167 68.3891 70.7659C69.7727 70.391 71.2154 70.1543 72.6643 70.2465C73.0283 70.2286 73.3826 70.3229 73.7424 70.3621C74.0974 70.4295 74.4683 70.4302 74.8109 70.554C75.5044 70.7611 76.2192 70.9201 76.8653 71.2551C78.2234 71.7587 79.4563 72.649 80.4277 73.7409C81.4157 74.8307 82.0996 76.1585 82.5674 77.5331C83.4818 80.3064 83.5285 83.2814 83.0408 86.1235C82.7628 87.5421 82.3755 88.9512 81.6579 90.2535C81.4817 90.5797 81.2643 90.892 81.0105 91.1865C80.7387 91.463 80.4264 91.7678 79.9331 91.8483C79.6689 91.8724 79.4535 91.8291 79.2519 91.7479C79.0483 91.6626 78.8495 91.5401 78.7036 91.3736C78.3974 91.0468 78.2564 90.6347 78.1979 90.2467C78.0878 89.4596 78.2426 88.7055 78.4869 88.0031C78.7407 87.302 79.1019 86.645 79.5629 86.0629C80.4635 84.892 81.8168 84.0127 83.3063 83.8173C84.7821 83.6109 86.3163 83.9838 87.5334 84.8128C88.7456 85.6584 89.6297 86.8658 90.2744 88.1462C90.9135 89.4376 91.336 90.8177 91.6153 92.2164C91.8932 93.6158 92.0233 95.0448 91.9731 96.4662Z" fill="#263238"/>
<path d="M243.892 132.353C241.12 131.768 238.208 131.687 235.486 132.389C234.136 132.744 232.827 133.329 231.817 134.268C230.826 135.21 230.196 136.524 230.095 137.872C229.987 139.223 230.494 140.571 231.344 141.623C231.766 142.154 232.28 142.613 232.847 142.981C233.412 143.341 234.049 143.62 234.679 143.674C234.991 143.7 235.297 143.656 235.526 143.521C235.646 143.459 235.735 143.362 235.815 143.257C235.859 143.207 235.879 143.136 235.914 143.079C235.943 143.018 235.934 142.972 235.955 142.92C235.978 142.443 235.483 141.852 234.999 141.417C233.987 140.505 232.742 139.822 231.474 139.255C228.925 138.141 226.113 137.494 223.34 137.706C221.963 137.825 220.592 138.151 219.378 138.804C218.168 139.454 217.082 140.341 216.273 141.484C215.8 142.003 215.483 142.626 215.119 143.219C214.918 143.507 214.83 143.85 214.679 144.164C214.555 144.489 214.378 144.796 214.307 145.139C213.863 146.467 213.732 147.877 213.736 149.278C213.803 152.092 214.633 154.878 215.95 157.389C215.204 156.178 214.639 154.858 214.201 153.5C213.777 152.139 213.466 150.729 213.399 149.29C213.358 147.857 213.464 146.399 213.891 145.012C213.959 144.654 214.133 144.33 214.255 143.99C214.404 143.66 214.491 143.3 214.692 142.996C215.055 142.37 215.376 141.712 215.853 141.162C216.66 139.958 217.813 138.968 219.101 138.277C220.392 137.571 221.842 137.216 223.288 137.082C226.198 136.84 229.102 137.488 231.752 138.626C233.067 139.227 234.346 139.932 235.445 140.935C235.721 141.181 235.974 141.466 236.201 141.782C236.407 142.11 236.63 142.485 236.593 142.984C236.556 143.246 236.463 143.446 236.337 143.623C236.207 143.801 236.04 143.966 235.845 144.069C235.456 144.291 235.022 144.331 234.631 144.297C233.839 144.22 233.142 143.894 232.516 143.493C231.894 143.082 231.339 142.578 230.88 141.994C229.951 140.845 229.413 139.324 229.57 137.83C229.713 136.348 230.434 134.942 231.524 133.952C232.628 132.97 234.009 132.393 235.405 132.065C236.809 131.745 238.25 131.655 239.676 131.71C241.102 131.766 242.521 131.973 243.892 132.353Z" fill="#263238"/>
<path d="M201.299 87.8407C200.829 86.2108 200.766 84.4674 201.03 82.7839C201.294 81.1003 201.864 79.4443 202.796 77.994C203.714 76.5423 204.994 75.2867 206.543 74.4866C208.087 73.6802 209.847 73.33 211.58 73.383C213.317 73.4298 215.024 73.8798 216.596 74.5967C218.162 75.3239 219.633 76.3063 220.771 77.6576C221.314 78.338 221.838 79.1313 221.87 80.1275C221.884 80.6194 221.684 81.145 221.331 81.5014C220.982 81.8358 220.6 82.1076 220.119 82.2472C219.646 82.3924 219.119 82.3566 218.669 82.1846C218.215 82.014 217.834 81.734 217.503 81.4244C216.843 80.7955 216.376 80.0346 215.99 79.253C215.223 77.681 214.82 75.9761 214.626 74.265C214.437 72.5512 214.486 70.8113 214.784 69.1112C215.359 65.7208 217.106 62.4466 219.889 60.3496C221.269 59.3196 222.822 58.4858 224.497 58.0613C226.162 57.6065 227.914 57.526 229.612 57.7331C231.313 57.9436 232.965 58.4369 234.526 59.1105C236.087 59.7847 237.577 60.6254 238.922 61.6574C236.127 59.7668 232.915 58.4128 229.574 58.0826C227.911 57.9133 226.214 58.0269 224.618 58.4968C223.011 58.9371 221.537 59.7689 220.228 60.7857C218.935 61.8212 217.834 63.0947 217.03 64.5429C216.219 65.9877 215.689 67.5846 215.409 69.2206C214.873 72.4873 215.219 75.9665 216.599 78.9572C216.954 79.6927 217.39 80.3993 217.958 80.9448C218.515 81.4884 219.251 81.8447 219.939 81.6266C220.278 81.5386 220.611 81.3053 220.871 81.059C221.115 80.8093 221.241 80.4859 221.237 80.1302C221.228 79.4078 220.793 78.671 220.29 78.0511C219.248 76.7989 217.84 75.8392 216.345 75.1388C214.843 74.4419 213.209 74.016 211.559 73.941C209.911 73.8653 208.239 74.1825 206.76 74.9152C205.278 75.6404 204.025 76.8106 203.105 78.1963C201.27 80.9717 200.55 84.5334 201.299 87.8407Z" fill="#263238"/>
<path d="M121.509 262.772C119.967 262.287 118.324 263.142 117.839 264.683C117.352 266.226 118.209 267.867 119.751 268.353C121.291 268.839 122.932 267.984 123.418 266.442C123.903 264.902 123.049 263.257 121.509 262.772ZM123.079 266.334C122.652 267.689 121.21 268.44 119.857 268.014C118.504 267.587 117.753 266.146 118.18 264.791C118.607 263.438 120.048 262.686 121.403 263.114C122.754 263.539 123.505 264.981 123.079 266.334ZM121.509 262.772C119.967 262.287 118.324 263.142 117.839 264.683C117.352 266.226 118.209 267.867 119.751 268.353C121.291 268.839 122.932 267.984 123.418 266.442C123.903 264.902 123.049 263.257 121.509 262.772ZM123.079 266.334C122.652 267.689 121.21 268.44 119.857 268.014C118.504 267.587 117.753 266.146 118.18 264.791C118.607 263.438 120.048 262.686 121.403 263.114C122.754 263.539 123.505 264.981 123.079 266.334ZM121.509 262.772C119.967 262.287 118.324 263.142 117.839 264.683C117.352 266.226 118.209 267.867 119.751 268.353C121.291 268.839 122.932 267.984 123.418 266.442C123.903 264.902 123.049 263.257 121.509 262.772ZM123.079 266.334C122.652 267.689 121.21 268.44 119.857 268.014C118.504 267.587 117.753 266.146 118.18 264.791C118.607 263.438 120.048 262.686 121.403 263.114C122.754 263.539 123.505 264.981 123.079 266.334ZM122.483 259.681C119.233 258.657 115.771 260.463 114.748 263.709C113.724 266.957 115.527 270.421 118.776 271.444C122.022 272.466 125.486 270.663 126.509 267.415C127.533 264.17 125.73 260.704 122.483 259.681ZM123.853 266.578C123.292 268.357 121.391 269.348 119.614 268.788C117.837 268.227 116.845 266.326 117.406 264.547C117.967 262.769 119.869 261.78 121.646 262.34C123.422 262.899 124.413 264.801 123.853 266.578ZM123.418 266.441C123.903 264.901 123.049 263.257 121.509 262.772C119.967 262.286 118.324 263.142 117.839 264.682C117.352 266.225 118.209 267.866 119.751 268.353C121.291 268.838 122.932 267.983 123.418 266.441ZM123.079 266.334C122.652 267.689 121.21 268.44 119.857 268.014C118.504 267.587 117.753 266.146 118.18 264.791C118.607 263.438 120.048 262.686 121.403 263.114C122.754 263.539 123.505 264.981 123.079 266.334ZM121.509 262.772C119.967 262.287 118.324 263.142 117.839 264.683C117.352 266.226 118.209 267.867 119.751 268.353C121.291 268.839 122.932 267.984 123.418 266.442C123.903 264.902 123.049 263.257 121.509 262.772ZM123.079 266.334C122.652 267.689 121.21 268.44 119.857 268.014C118.504 267.587 117.753 266.146 118.18 264.791C118.607 263.438 120.048 262.686 121.403 263.114C122.754 263.539 123.505 264.981 123.079 266.334ZM121.509 262.772C119.967 262.287 118.324 263.142 117.839 264.683C117.352 266.226 118.209 267.867 119.751 268.353C121.291 268.839 122.932 267.984 123.418 266.442C123.903 264.902 123.049 263.257 121.509 262.772ZM123.079 266.334C122.652 267.689 121.21 268.44 119.857 268.014C118.504 267.587 117.753 266.146 118.18 264.791C118.607 263.438 120.048 262.686 121.403 263.114C122.754 263.539 123.505 264.981 123.079 266.334Z" fill="#455A64"/>
<path d="M119.984 271.556L117.723 270.844L117.344 272.484L119.355 273.118L119.984 271.556Z" fill="#455A64"/>
<path d="M115.921 269.439L114.826 267.336L113.398 268.228L114.372 270.098L115.921 269.439Z" fill="#455A64"/>
<path d="M114.545 265.07L115.258 262.809L113.618 262.43L112.984 264.441L114.545 265.07Z" fill="#455A64"/>
<path d="M116.659 261.004L118.762 259.909L117.87 258.48L116 259.455L116.659 261.004Z" fill="#455A64"/>
<path d="M121.031 259.627L123.293 260.34L123.672 258.7L121.661 258.066L121.031 259.627Z" fill="#455A64"/>
<path d="M125.102 261.744L126.197 263.848L127.625 262.956L126.651 261.086L125.102 261.744Z" fill="#455A64"/>
<path d="M126.478 266.117L125.766 268.379L127.406 268.758L128.039 266.747L126.478 266.117Z" fill="#455A64"/>
<path d="M124.353 270.184L122.25 271.279L123.142 272.707L125.012 271.733L124.353 270.184Z" fill="#455A64"/>
<path d="M235.571 243.103C238.673 238.924 237.799 233.021 233.62 229.92C229.44 226.818 223.536 227.691 220.435 231.87C217.333 236.05 218.207 241.954 222.387 245.056C226.565 248.157 232.469 247.284 235.571 243.103ZM231.538 240.11C230.088 242.063 227.333 242.471 225.381 241.023C223.427 239.573 223.019 236.818 224.469 234.864C225.917 232.912 228.673 232.504 230.627 233.954C232.578 235.402 232.986 238.158 231.538 240.11Z" fill="#263238"/>
<path d="M224.075 245.824L221.165 243.664L219.797 245.844L222.385 247.765L224.075 245.824Z" fill="#263238"/>
<path d="M219.266 240.734L218.735 237.148L216.227 237.722L216.699 240.911L219.266 240.734Z" fill="#263238"/>
<path d="M219.464 233.727L221.624 230.817L219.444 229.449L217.523 232.037L219.464 233.727Z" fill="#263238"/>
<path d="M224.553 228.918L228.138 228.387L227.564 225.879L224.375 226.351L224.553 228.918Z" fill="#263238"/>
<path d="M231.562 229.116L234.473 231.276L235.84 229.097L233.252 227.176L231.562 229.116Z" fill="#263238"/>
<path d="M236.375 234.209L236.905 237.794L239.414 237.22L238.942 234.031L236.375 234.209Z" fill="#263238"/>
<path d="M236.176 241.211L234.016 244.121L236.195 245.489L238.116 242.901L236.176 241.211Z" fill="#263238"/>
<path d="M231.085 246.023L227.5 246.554L228.074 249.062L231.263 248.591L231.085 246.023Z" fill="#263238"/>
<path d="M224.625 237.939L226.627 240.464L229.815 239.991L230.999 236.996L228.999 234.473L225.81 234.943L224.625 237.939ZM228.42 236.647C228.874 236.985 228.968 237.622 228.631 238.076C228.295 238.528 227.656 238.625 227.202 238.288C226.75 237.952 226.655 237.311 226.991 236.859C227.328 236.405 227.968 236.312 228.42 236.647Z" fill="#263238"/>
<path d="M242.635 59.5881C241.286 59.1629 239.849 59.9122 239.423 61.26C238.998 62.6105 239.747 64.0464 241.097 64.4715C242.444 64.8967 243.88 64.1482 244.305 62.799C244.731 61.4512 243.983 60.0126 242.635 59.5881ZM244.009 62.7048C243.635 63.8902 242.374 64.5472 241.189 64.1743C240.005 63.8014 239.348 62.5396 239.721 61.3542C240.094 60.1702 241.356 59.5131 242.541 59.886C243.725 60.2589 244.382 61.5207 244.009 62.7048ZM242.635 59.5881C241.286 59.1629 239.849 59.9122 239.423 61.26C238.998 62.6105 239.747 64.0464 241.097 64.4715C242.444 64.8967 243.88 64.1482 244.305 62.799C244.731 61.4512 243.983 60.0126 242.635 59.5881ZM244.009 62.7048C243.635 63.8902 242.374 64.5472 241.189 64.1743C240.005 63.8014 239.348 62.5396 239.721 61.3542C240.094 60.1702 241.356 59.5131 242.541 59.886C243.725 60.2589 244.382 61.5207 244.009 62.7048ZM242.635 59.5881C241.286 59.1629 239.849 59.9122 239.423 61.26C238.998 62.6105 239.747 64.0464 241.097 64.4715C242.444 64.8967 243.88 64.1482 244.305 62.799C244.731 61.4512 243.983 60.0126 242.635 59.5881ZM244.009 62.7048C243.635 63.8902 242.374 64.5472 241.189 64.1743C240.005 63.8014 239.348 62.5396 239.721 61.3542C240.094 60.1702 241.356 59.5131 242.541 59.886C243.725 60.2589 244.382 61.5207 244.009 62.7048ZM243.489 56.8836C240.645 55.9878 237.615 57.5681 236.72 60.4082C235.824 63.2497 237.401 66.281 240.245 67.1761C243.086 68.0712 246.116 66.4929 247.011 63.6508C247.907 60.8107 246.329 57.778 243.489 56.8836ZM244.687 62.918C244.196 64.4743 242.532 65.3419 240.977 64.8513C239.421 64.3608 238.554 62.6972 239.045 61.1409C239.535 59.5847 241.2 58.7185 242.755 59.209C244.31 59.6989 245.176 61.3625 244.687 62.918ZM244.306 62.799C244.731 61.4512 243.983 60.0126 242.636 59.5881C241.286 59.1629 239.849 59.9122 239.424 61.26C238.999 62.6105 239.748 64.0464 241.097 64.4715C242.445 64.896 243.881 64.1482 244.306 62.799ZM244.009 62.7048C243.635 63.8902 242.374 64.5472 241.189 64.1743C240.005 63.8014 239.348 62.5396 239.721 61.3542C240.094 60.1702 241.356 59.5131 242.541 59.886C243.725 60.2589 244.382 61.5207 244.009 62.7048ZM242.635 59.5881C241.286 59.1629 239.849 59.9122 239.423 61.26C238.998 62.6105 239.747 64.0464 241.097 64.4715C242.444 64.8967 243.88 64.1482 244.305 62.799C244.731 61.4512 243.983 60.0126 242.635 59.5881ZM244.009 62.7048C243.635 63.8902 242.374 64.5472 241.189 64.1743C240.005 63.8014 239.348 62.5396 239.721 61.3542C240.094 60.1702 241.356 59.5131 242.541 59.886C243.725 60.2589 244.382 61.5207 244.009 62.7048ZM242.635 59.5881C241.286 59.1629 239.849 59.9122 239.423 61.26C238.998 62.6105 239.747 64.0464 241.097 64.4715C242.444 64.8967 243.88 64.1482 244.305 62.799C244.731 61.4512 243.983 60.0126 242.635 59.5881ZM244.009 62.7048C243.635 63.8902 242.374 64.5472 241.189 64.1743C240.005 63.8014 239.348 62.5396 239.721 61.3542C240.094 60.1702 241.356 59.5131 242.541 59.886C243.725 60.2589 244.382 61.5207 244.009 62.7048Z" fill="#263238"/>
<path d="M241.295 67.2757L239.316 66.6523L238.984 68.0875L240.744 68.642L241.295 67.2757Z" fill="#263238"/>
<path d="M237.739 65.4178L236.781 63.5781L235.531 64.3576L236.384 65.9944L237.739 65.4178Z" fill="#263238"/>
<path d="M236.538 61.5955L237.162 59.6168L235.726 59.2852L235.172 61.0451L236.538 61.5955Z" fill="#263238"/>
<path d="M238.389 58.0398L240.229 57.0814L239.449 55.832L237.812 56.6845L238.389 58.0398Z" fill="#263238"/>
<path d="M242.219 56.8351L244.197 57.4584L244.53 56.0233L242.77 55.4688L242.219 56.8351Z" fill="#263238"/>
<path d="M245.766 58.6898L246.724 60.5302L247.973 59.75L247.121 58.1133L245.766 58.6898Z" fill="#263238"/>
<path d="M246.983 62.5117L246.359 64.4904L247.795 64.8227L248.349 63.0628L246.983 62.5117Z" fill="#263238"/>
<path d="M245.121 66.0703L243.281 67.0287L244.061 68.2781L245.698 67.4257L245.121 66.0703Z" fill="#263238"/>
<path d="M216.354 157.877C215.005 157.452 213.568 158.201 213.143 159.549C212.718 160.9 213.467 162.335 214.816 162.761C216.164 163.186 217.6 162.437 218.025 161.088C218.449 159.74 217.702 158.302 216.354 157.877ZM217.728 160.994C217.354 162.179 216.093 162.836 214.909 162.463C213.725 162.09 213.068 160.829 213.441 159.643C213.814 158.459 215.075 157.802 216.261 158.175C217.443 158.548 218.101 159.81 217.728 160.994ZM216.354 157.877C215.005 157.452 213.568 158.201 213.143 159.549C212.718 160.9 213.467 162.335 214.816 162.761C216.164 163.186 217.6 162.437 218.025 161.088C218.449 159.74 217.702 158.302 216.354 157.877ZM217.728 160.994C217.354 162.179 216.093 162.836 214.909 162.463C213.725 162.09 213.068 160.829 213.441 159.643C213.814 158.459 215.075 157.802 216.261 158.175C217.443 158.548 218.101 159.81 217.728 160.994ZM216.354 157.877C215.005 157.452 213.568 158.201 213.143 159.549C212.718 160.9 213.467 162.335 214.816 162.761C216.164 163.186 217.6 162.437 218.025 161.088C218.449 159.74 217.702 158.302 216.354 157.877ZM217.728 160.994C217.354 162.179 216.093 162.836 214.909 162.463C213.725 162.09 213.068 160.829 213.441 159.643C213.814 158.459 215.075 157.802 216.261 158.175C217.443 158.548 218.101 159.81 217.728 160.994ZM217.207 155.173C214.363 154.277 211.334 155.857 210.438 158.697C209.543 161.539 211.12 164.57 213.964 165.465C216.804 166.36 219.835 164.782 220.73 161.94C221.626 159.1 220.048 156.067 217.207 155.173ZM218.405 161.207C217.915 162.763 216.251 163.631 214.696 163.14C213.141 162.651 212.273 160.986 212.764 159.43C213.254 157.874 214.919 157.008 216.474 157.498C218.028 157.988 218.895 159.652 218.405 161.207ZM218.025 161.088C218.449 159.74 217.702 158.302 216.354 157.877C215.005 157.452 213.568 158.201 213.143 159.549C212.718 160.9 213.467 162.335 214.816 162.761C216.164 163.186 217.6 162.437 218.025 161.088ZM217.728 160.994C217.354 162.179 216.093 162.836 214.909 162.463C213.725 162.09 213.068 160.829 213.441 159.643C213.814 158.459 215.075 157.802 216.261 158.175C217.443 158.548 218.101 159.81 217.728 160.994ZM216.354 157.877C215.005 157.452 213.568 158.201 213.143 159.549C212.718 160.9 213.467 162.335 214.816 162.761C216.164 163.186 217.6 162.437 218.025 161.088C218.449 159.74 217.702 158.302 216.354 157.877ZM217.728 160.994C217.354 162.179 216.093 162.836 214.909 162.463C213.725 162.09 213.068 160.829 213.441 159.643C213.814 158.459 215.075 157.802 216.261 158.175C217.443 158.548 218.101 159.81 217.728 160.994ZM216.354 157.877C215.005 157.452 213.568 158.201 213.143 159.549C212.718 160.9 213.467 162.335 214.816 162.761C216.164 163.186 217.6 162.437 218.025 161.088C218.449 159.74 217.702 158.302 216.354 157.877ZM217.728 160.994C217.354 162.179 216.093 162.836 214.909 162.463C213.725 162.09 213.068 160.829 213.441 159.643C213.814 158.459 215.075 157.802 216.261 158.175C217.443 158.548 218.101 159.81 217.728 160.994Z" fill="#263238"/>
<path d="M215.013 165.565L213.035 164.941L212.703 166.377L214.463 166.931L215.013 165.565Z" fill="#263238"/>
<path d="M211.458 163.707L210.5 161.867L209.25 162.647L210.102 164.283L211.458 163.707Z" fill="#263238"/>
<path d="M210.256 159.885L210.88 157.906L209.445 157.574L208.891 159.334L210.256 159.885Z" fill="#263238"/>
<path d="M212.108 156.329L213.948 155.371L213.168 154.121L211.531 154.974L212.108 156.329Z" fill="#263238"/>
<path d="M215.938 155.123L217.916 155.748L218.248 154.312L216.489 153.758L215.938 155.123Z" fill="#263238"/>
<path d="M219.484 156.975L220.443 158.815L221.692 158.035L220.84 156.398L219.484 156.975Z" fill="#263238"/>
<path d="M220.701 160.801L220.078 162.779L221.513 163.112L222.068 161.352L220.701 160.801Z" fill="#263238"/>
<path d="M218.84 164.355L217 165.314L217.78 166.563L219.416 165.711L218.84 164.355Z" fill="#263238"/>
<path d="M65.8771 80.4942C66.938 76.1406 64.2679 71.7504 59.9142 70.6895C55.5592 69.6286 51.1684 72.2988 50.1075 76.6524C49.0466 81.0075 51.7167 85.3983 56.0718 86.4592C60.4261 87.5194 64.8163 84.8493 65.8771 80.4942ZM61.6748 79.4705C61.1788 81.5056 59.1299 82.7522 57.0962 82.2562C55.0611 81.7601 53.8144 79.7113 54.3105 77.6762C54.8059 75.6425 56.8554 74.3965 58.8905 74.8925C60.9235 75.3879 62.1702 77.4368 61.6748 79.4705Z" fill="#263238"/>
<path d="M57.6683 86.5006L54.6363 85.7617L54.2812 87.9489L56.9775 88.6059L57.6683 86.5006Z" fill="#263238"/>
<path d="M52.1459 84.0729L50.5243 81.4062L48.7266 82.7018L50.1686 85.0733L52.1459 84.0729Z" fill="#263238"/>
<path d="M49.9568 78.4534L50.6958 75.4221L48.5086 75.0664L47.8516 77.7634L49.9568 78.4534Z" fill="#263238"/>
<path d="M52.391 72.9311L55.057 71.3095L53.7622 69.5117L51.3906 70.9545L52.391 72.9311Z" fill="#263238"/>
<path d="M58 70.742L61.032 71.4809L61.3877 69.2938L58.6908 68.6367L58 70.742Z" fill="#263238"/>
<path d="M63.5312 73.1683L65.1529 75.835L66.9506 74.5395L65.5086 72.168L63.5312 73.1683Z" fill="#263238"/>
<path d="M65.7155 78.7891L64.9766 81.8211L67.1637 82.1761L67.8208 79.4791L65.7155 78.7891Z" fill="#263238"/>
<path d="M63.291 84.3125L60.625 85.9341L61.9205 87.7319L64.292 86.2891L63.291 84.3125Z" fill="#263238"/>
<path d="M55.4702 80.0623L57.9037 81.395L60.2739 79.9516L60.2099 77.1796L57.7778 75.8477L55.4062 77.2883L55.4702 80.0623ZM58.0482 77.7665C58.5215 77.8814 58.8098 78.3561 58.6942 78.8294C58.5793 79.3007 58.1046 79.5911 57.6312 79.4755C57.16 79.3606 56.8703 78.8838 56.9852 78.4125C57.1008 77.9399 57.5769 77.6516 58.0482 77.7665Z" fill="#263238"/>
<path d="M249.281 164.386C247.431 161.568 246.391 158.399 246.391 155.048C246.391 143.217 259.382 133.625 275.398 133.625C291.414 133.625 304.394 143.218 304.394 155.048C304.394 166.878 291.414 176.471 275.398 176.471C267.632 176.471 260.592 174.221 255.39 170.544L245.398 173.085L249.281 164.386Z" fill="white"/>
<path d="M249.281 164.387C247.535 161.786 246.44 158.714 246.325 155.558C246.238 152.409 247.015 149.223 248.632 146.498C250.213 143.752 252.466 141.438 255.012 139.576C257.56 137.704 260.43 136.29 263.425 135.296C266.42 134.295 269.542 133.695 272.69 133.443C275.843 133.213 279.018 133.408 282.133 133.924C282.907 134.083 283.693 134.189 284.458 134.391L286.749 135.008L288.987 135.798C289.731 136.067 290.438 136.429 291.166 136.74C294.023 138.099 296.701 139.88 298.954 142.127C301.201 144.366 303.013 147.102 303.969 150.163C304.922 153.212 304.992 156.56 304.063 159.627C303.161 162.705 301.391 165.468 299.174 167.737C296.952 170.014 294.295 171.826 291.453 173.216C288.612 174.622 285.55 175.538 282.445 176.102C279.335 176.636 276.161 176.864 273.011 176.642C269.862 176.443 266.734 175.868 263.737 174.879C260.744 173.893 257.863 172.516 255.299 170.673L255.429 170.697L245.417 173.159L245.266 173.196L245.33 173.055L249.281 164.387ZM249.281 164.387L245.467 173.115L245.379 173.011L255.351 170.392L255.42 170.374L255.48 170.416C260.625 173.967 266.83 175.816 273.041 176.148C276.153 176.34 279.284 176.086 282.341 175.533C285.396 174.966 288.405 174.058 291.188 172.67C293.971 171.299 296.564 169.517 298.718 167.294C300.868 165.08 302.568 162.402 303.427 159.443C304.313 156.493 304.228 153.289 303.314 150.364C302.405 147.424 300.667 144.775 298.488 142.591C296.305 140.4 293.693 138.65 290.897 137.309C290.184 137.002 289.492 136.644 288.762 136.379L286.566 135.596L284.316 134.984C283.565 134.782 282.792 134.676 282.031 134.517C278.966 133.997 275.839 133.809 272.73 134.008C269.625 134.229 266.541 134.793 263.579 135.754C260.616 136.709 257.775 138.078 255.248 139.9C252.721 141.712 250.494 143.975 248.889 146.647C247.254 149.305 246.439 152.431 246.474 155.553C246.537 158.681 247.575 161.759 249.281 164.387Z" fill="#263238"/>
<path d="M260.476 158.561V160.153H253.984V150.805H260.357V152.398H255.802V154.649H259.739V156.124H255.802V158.56L260.476 158.561Z" fill="#263238"/>
<path d="M261.898 160.153V150.805H266.033C266.463 150.805 266.86 150.895 267.224 151.075C267.588 151.255 267.902 151.492 268.165 151.786C268.429 152.08 268.635 152.414 268.784 152.787C268.933 153.16 269.008 153.535 269.008 153.912C269.008 154.518 268.856 155.069 268.553 155.565C268.251 156.061 267.841 156.419 267.323 156.638L269.456 160.153H267.415L265.506 157.019H263.715V160.153H261.898ZM263.715 155.426H265.993C266.16 155.426 266.316 155.387 266.461 155.308C266.606 155.229 266.73 155.121 266.836 154.985C266.941 154.849 267.025 154.689 267.086 154.505C267.148 154.32 267.179 154.123 267.179 153.912C267.179 153.693 267.143 153.491 267.074 153.307C267.003 153.123 266.909 152.963 266.79 152.827C266.672 152.691 266.536 152.585 266.382 152.51C266.228 152.436 266.073 152.398 265.914 152.398H263.716V155.426H263.715Z" fill="#263238"/>
<path d="M270.656 160.153V150.805H274.791C275.221 150.805 275.618 150.895 275.982 151.075C276.346 151.255 276.66 151.492 276.923 151.786C277.187 152.08 277.393 152.414 277.542 152.787C277.691 153.16 277.765 153.535 277.765 153.912C277.765 154.518 277.614 155.069 277.311 155.565C277.009 156.061 276.599 156.419 276.08 156.638L278.213 160.153H276.172L274.263 157.019H272.473V160.153H270.656ZM272.474 155.426H274.751C274.918 155.426 275.074 155.387 275.218 155.308C275.364 155.229 275.488 155.121 275.594 154.985C275.699 154.849 275.783 154.689 275.844 154.505C275.906 154.32 275.937 154.123 275.937 153.912C275.937 153.693 275.901 153.491 275.831 153.307C275.761 153.123 275.667 152.963 275.548 152.827C275.43 152.691 275.293 152.585 275.14 152.51C274.986 152.436 274.83 152.398 274.672 152.398H272.474V155.426Z" fill="#263238"/>
<path d="M283.399 160.218C282.714 160.218 282.094 160.084 281.536 159.816C280.978 159.549 280.5 159.193 280.101 158.75C279.701 158.307 279.392 157.8 279.172 157.23C278.953 156.659 278.844 156.075 278.844 155.479C278.844 154.855 278.96 154.259 279.193 153.688C279.425 153.117 279.746 152.612 280.153 152.173C280.562 151.735 281.047 151.386 281.608 151.127C282.17 150.868 282.78 150.738 283.438 150.738C284.114 150.738 284.73 150.877 285.288 151.153C285.846 151.43 286.322 151.792 286.717 152.24C287.111 152.687 287.419 153.197 287.638 153.767C287.858 154.338 287.967 154.917 287.967 155.505C287.967 156.128 287.853 156.723 287.625 157.289C287.397 157.855 287.08 158.355 286.677 158.79C286.273 159.225 285.79 159.572 285.229 159.83C284.667 160.088 284.057 160.218 283.399 160.218ZM280.686 155.478C280.686 155.882 280.747 156.273 280.871 156.65C280.994 157.027 281.172 157.361 281.404 157.651C281.636 157.94 281.922 158.173 282.26 158.348C282.597 158.524 282.981 158.612 283.412 158.612C283.851 158.612 284.239 158.522 284.577 158.342C284.915 158.162 285.199 157.923 285.433 157.624C285.665 157.326 285.841 156.99 285.96 156.617C286.078 156.244 286.137 155.865 286.137 155.479C286.137 155.075 286.073 154.685 285.947 154.307C285.819 153.93 285.64 153.596 285.407 153.306C285.174 153.016 284.889 152.786 284.551 152.615C284.214 152.444 283.834 152.358 283.413 152.358C282.973 152.358 282.583 152.448 282.241 152.628C281.898 152.808 281.613 153.045 281.385 153.339C281.157 153.633 280.983 153.967 280.865 154.34C280.745 154.712 280.686 155.092 280.686 155.478Z" fill="#263238"/>
<path d="M289.359 160.153V150.805H293.494C293.924 150.805 294.321 150.895 294.685 151.075C295.049 151.255 295.363 151.492 295.626 151.786C295.89 152.08 296.096 152.414 296.245 152.787C296.394 153.16 296.468 153.535 296.468 153.912C296.468 154.518 296.317 155.069 296.014 155.565C295.712 156.061 295.302 156.419 294.784 156.638L296.917 160.153H294.876L292.967 157.019H291.176V160.153H289.359ZM291.176 155.426H293.454C293.621 155.426 293.777 155.387 293.922 155.308C294.067 155.229 294.192 155.121 294.297 154.985C294.402 154.849 294.486 154.689 294.547 154.505C294.609 154.32 294.64 154.123 294.64 153.912C294.64 153.693 294.604 153.491 294.535 153.307C294.464 153.123 294.37 152.963 294.251 152.827C294.133 152.691 293.996 152.585 293.843 152.51C293.689 152.436 293.533 152.398 293.375 152.398H291.177V155.426H291.176Z" fill="#263238"/>
</svg>
